<svg width="146" height="150" viewBox="0 0 146 150" fill="none" xmlns="http://www.w3.org/2000/svg">
<g filter="url(#filter0_d)">
<path opacity="0.7" d="M19.8355 48.7905C19.8355 48.7905 11.6946 69.8145 23.1351 90.9845C34.5757 112.154 58.1401 123.338 77.0003 132.901C95.8606 142.464 115.445 137.807 124.751 122.144C134.057 106.481 121.294 95.3002 121.276 72.9651C121.259 50.6301 124.62 44.7171 112.516 25.848C100.413 6.97898 70.7428 2.80046 48.3055 16.796C25.8682 30.7916 19.8355 48.7905 19.8355 48.7905Z" fill="#036CCA"/>
<path d="M22.5045 48.6036C30.92 33.11 52.09 15.0236 81.1323 22.5572C110.175 30.0908 129.797 46.0281 126.582 73.7564C123.367 101.485 106.472 124.524 70.0801 125.198C33.6881 125.873 4.05011 82.5778 22.5045 48.6036Z" fill="#037DEB"/>
<path opacity="0.7" d="M22.5045 48.6036C30.92 33.11 52.09 15.0236 81.1323 22.5572C110.175 30.0908 129.797 46.0281 126.582 73.7564C123.367 101.485 106.472 124.524 70.0801 125.198C33.6881 125.873 4.05011 82.5778 22.5045 48.6036Z" fill="#EFF6FC"/>
<path d="M128.22 69.5573L109.279 72.4896C108.555 72.6016 108.06 73.2789 108.172 74.0025L109.958 85.5392C110.07 86.2627 110.747 86.7585 111.47 86.6465L130.412 83.7142C131.135 83.6022 131.631 82.9248 131.519 82.2013L129.733 70.6646C129.621 69.941 128.944 69.4453 128.22 69.5573Z" stroke="#263238" stroke-linecap="round" stroke-linejoin="round"/>
<path d="M108.46 75.8639L130.022 72.5264" stroke="#263238" stroke-linecap="round" stroke-linejoin="round"/>
<path d="M128.336 76.3114L124.853 76.8506L125.629 81.8658L129.112 81.3266L128.336 76.3114Z" stroke="#263238" stroke-linecap="round" stroke-linejoin="round"/>
<path d="M126.266 77.6716C127.002 76.7956 128.211 77.3796 127.928 80.0981L129.005 80.6325L129.111 81.3158L125.63 81.856L125.487 80.942L126.801 80.431C126.801 80.431 125.574 78.498 126.266 77.6716Z" stroke="#263238" stroke-linecap="round" stroke-linejoin="round"/>
<path d="M118.712 83.8037C118.712 83.8037 121.229 83.8241 120.508 83.3219C119.787 82.8196 119.679 82.3115 120.292 82.3028C120.905 82.294 121.933 83.4708 121.851 82.7525C121.77 82.0341 122.213 82.5014 122.298 82.5481C122.383 82.5948 123.11 82.3028 123.145 82.3875C123.18 82.4721 123.13 82.7087 125.498 82.3437" stroke="#263238" stroke-linecap="round" stroke-linejoin="round"/>
<path d="M110.289 78.104L120.847 76.4688" stroke="#263238" stroke-linecap="round" stroke-linejoin="round"/>
<path d="M110.475 79.3005L116.695 78.3369" stroke="#263238" stroke-linecap="round" stroke-linejoin="round"/>
<path d="M110.802 81.4125L119.478 80.0693" stroke="#263238" stroke-linecap="round" stroke-linejoin="round"/>
<path d="M113.495 73.516L124.083 71.875" stroke="#263238" stroke-linecap="round" stroke-linejoin="round"/>
<path d="M12.6582 66.1201L36.3306 61.3926L44.5972 101.081L19.4355 106.477L12.6582 66.1201Z" stroke="#263238" stroke-linecap="round" stroke-linejoin="round"/>
<path d="M18.4834 100.815L43.5954 96.2686" stroke="#263238" stroke-linecap="round" stroke-linejoin="round"/>
<path d="M40.6199 92.8936L28.6274 95.1069" stroke="#263238" stroke-linecap="round" stroke-linejoin="round"/>
<path d="M38.8419 90.9023L35.3379 91.4192" stroke="#263238" stroke-linecap="round" stroke-linejoin="round"/>
<path d="M39.3762 86.8496L21.4766 90.2076" stroke="#263238" stroke-linecap="round" stroke-linejoin="round"/>
<path d="M15.7534 84.5569L40.2551 80.2324" stroke="#263238" stroke-linecap="round" stroke-linejoin="round" stroke-dasharray="1 2"/>
<path d="M41.788 99.7969L26.9048 102.915" stroke="#263238" stroke-linecap="round" stroke-linejoin="round"/>
<path d="M41.344 98.541L34.3477 99.7966" stroke="#263238" stroke-linecap="round" stroke-linejoin="round"/>
<path d="M37.5599 77.6162L25.2871 80.0486" stroke="#263238" stroke-linecap="round" stroke-linejoin="round"/>
<path d="M36.5905 74.8916L32.6807 75.6596" stroke="#263238" stroke-linecap="round" stroke-linejoin="round"/>
<path d="M36.3596 73L18.4834 76.4456" stroke="#263238" stroke-linecap="round" stroke-linejoin="round"/>
<path d="M34.7364 63.79L29.9097 64.7887" stroke="#263238" stroke-linecap="round" stroke-linejoin="round"/>
<path d="M18.4833 67.2207L14.3193 68.0295" stroke="#263238" stroke-linecap="round" stroke-linejoin="round"/>
<path d="M15.835 70.3246C15.9218 70.0285 16.0709 69.7545 16.2724 69.5208C16.4738 69.2871 16.7229 69.0992 17.003 68.9697" stroke="#263238" stroke-linecap="round" stroke-linejoin="round"/>
<path d="M17.6865 72.9999C17.1695 72.9387 16.6915 72.694 16.3395 72.3104C15.9875 71.9267 15.7847 71.4296 15.7681 70.9092" stroke="#263238" stroke-linecap="round" stroke-linejoin="round"/>
<path d="M19.31 72.5029C19.0135 72.7696 18.6447 72.9424 18.25 72.9993" stroke="#263238" stroke-linecap="round" stroke-linejoin="round"/>
<path d="M17.8911 68.7715C18.2671 68.7838 18.6334 68.8932 18.9545 69.0892C19.2756 69.2851 19.5405 69.5609 19.7234 69.8896C19.9063 70.2183 20.0009 70.5888 19.9981 70.9649C19.9953 71.3411 19.8951 71.7101 19.7073 72.036" stroke="#263238" stroke-linecap="round" stroke-linejoin="round"/>
<path d="M22.148 69.3201C21.7596 69.1975 21.3742 69.0573 20.98 68.9697" stroke="#263238" stroke-linecap="round" stroke-linejoin="round"/>
<path d="M25.4598 69.6003C25.1298 70.3857 23.2844 69.6704 22.7471 69.5068" stroke="#263238" stroke-linecap="round" stroke-linejoin="round"/>
<path d="M22.3003 67.5156L25.7517 68.3274C25.6963 68.5581 25.6525 68.7917 25.6087 69.0223" stroke="#263238" stroke-linecap="round" stroke-linejoin="round"/>
<path d="M20.5918 68.3282C20.9597 67.4522 20.8137 67.1602 21.7306 67.3734" stroke="#263238" stroke-linecap="round" stroke-linejoin="round"/>
<path d="M62.707 130.311L67.2768 131.713L63.8809 127.712C65.7425 125.643 66.8084 122.979 66.8885 120.196" stroke="#263238" stroke-linecap="round" stroke-linejoin="round"/>
<path d="M57.1621 132.074C58.6938 131.585 60.1393 130.859 61.4458 129.922" stroke="#263238" stroke-linecap="round" stroke-linejoin="round"/>
<path d="M39.5278 123.577C40.874 130.062 48.0396 134.057 55.5353 132.504" stroke="#263238" stroke-linecap="round" stroke-linejoin="round"/>
<path d="M40.6196 116.266C40.332 116.812 40.0879 117.38 39.8896 117.965" stroke="#263238" stroke-linecap="round" stroke-linejoin="round"/>
<path d="M66.6691 117.947C65.3259 111.462 58.1573 107.467 50.6646 109.024C47.2622 109.692 44.1959 111.517 41.9863 114.189" stroke="#263238" stroke-linecap="round" stroke-linejoin="round"/>
<path d="M58.7177 115.57C56.5599 113.219 53.6194 114.849 52.3959 117.234C50.3753 115.482 47.0377 115.053 45.9106 118.04C44.0068 123.071 50.5184 126.14 53.5318 127.25C53.8735 127.378 54.1538 127.486 54.3874 127.565C54.5772 127.405 54.7991 127.2 55.0677 126.955C57.4505 124.803 62.3561 119.535 58.7177 115.57Z" stroke="#263238" stroke-linecap="round" stroke-linejoin="round"/>
<path d="M76.6617 19.8562L72.2496 18.0195L75.2426 22.3295C73.1969 24.21 71.8849 26.7554 71.54 29.5127" stroke="#263238" stroke-linecap="round" stroke-linejoin="round"/>
<path d="M82.3441 18.627C80.7732 18.9675 79.2649 19.5507 77.8735 20.3556" stroke="#263238" stroke-linecap="round" stroke-linejoin="round"/>
<path d="M99.0843 28.7824C98.3689 22.1919 91.6208 17.5199 84.0112 18.358" stroke="#263238" stroke-linecap="round" stroke-linejoin="round"/>
<path d="M97.2944 35.9546C97.6282 35.438 97.9211 34.8962 98.1704 34.334" stroke="#263238" stroke-linecap="round" stroke-linejoin="round"/>
<path d="M71.54 31.7734C72.2554 38.358 79.0036 43.0242 86.6131 42.1978C90.0634 41.8588 93.2903 40.3372 95.7468 37.8908" stroke="#263238" stroke-linecap="round" stroke-linejoin="round"/>
<path d="M88.5125 35.8023C91.8864 33.9963 93.1574 29.7971 91.3514 26.4232C89.5453 23.0493 85.3461 21.7783 81.9723 23.5844C78.5984 25.3904 77.3274 29.5896 79.1334 32.9635C80.9394 36.3374 85.1386 37.6084 88.5125 35.8023Z" stroke="#263238" stroke-linecap="round" stroke-linejoin="round"/>
<path d="M82.6099 30.5697L84.6831 32.5261L88.1404 26.5723" stroke="#263238" stroke-linecap="round" stroke-linejoin="round"/>
<path opacity="0.2" d="M93.9047 95.6904C93.9047 95.6904 92.8652 108.27 94.369 111.321C95.8728 114.373 96.6262 135.221 95.9516 137.844C95.9516 137.844 100.793 139.064 102.709 137.33C104.624 135.595 107.57 137.265 112.423 135.578C117.276 133.89 113.775 96.4292 113.775 96.4292L113.924 82.8015L105.921 75.6709L93.9047 95.6904Z" fill="black" fill-opacity="0.7"/>
<path d="M100.358 101.741C100.328 101.831 100.279 101.913 100.215 101.983C99.181 102.961 94.7689 104.048 90.9787 104.83C87.8397 105.481 85.1387 105.922 85.1387 105.922C85.1387 105.922 83.0597 88.6445 83.0597 86.8283C83.0597 85.0121 79.7075 55.6077 79.7075 55.6077L87.7434 55.2602L98.4043 54.7988C98.4043 54.7988 98.4685 55.5843 98.5766 56.9567C99.2803 65.6992 101.698 98.2922 100.358 101.741Z" fill="#037DEB"/>
<path opacity="0.2" d="M100.358 101.741L90.9785 103.659L87.4365 104.386C86.4758 103.443 85.7429 103.425 85.7429 103.425L85.4509 100.783L84.9925 96.4584L80.957 58.4108C81.833 57.8063 82.2652 56.4836 82.2652 56.4836L87.6672 56.2879L97.0258 55.9463L98.5705 56.9449C99.28 65.6991 101.698 98.2921 100.358 101.741Z" fill="black" fill-opacity="0.7"/>
<path d="M100.358 101.741L90.9785 103.659L87.4365 104.386C86.4758 103.443 85.7429 103.425 85.7429 103.425L85.4509 100.783L84.9925 96.4584L80.957 58.4108C81.833 57.8063 82.2652 56.4836 82.2652 56.4836L87.6672 56.2879L97.0258 55.9463L98.5705 56.9449C99.28 65.6991 101.698 98.2921 100.358 101.741Z" stroke="#263238" stroke-linecap="round" stroke-linejoin="round"/>
<path d="M86.2393 90.54L89.3695 90.5342L89.3724 91.5124L88.5023 91.8219L86.4962 92.0409L86.2393 90.54Z" fill="#037DEB" stroke="#263238" stroke-linecap="round" stroke-linejoin="round"/>
<path d="M86.4321 92.5544L88.7331 92.4756L89.3229 92.7559L89.2937 94.0553L86.6073 94.0845L86.4321 92.5544Z" fill="#037DEB" stroke="#263238" stroke-linecap="round" stroke-linejoin="round"/>
<path d="M86.8002 94.6302L89.4283 94.4404L89.3991 95.4245L88.1289 95.8741L86.7856 95.7982L86.8002 94.6302Z" fill="#037DEB" stroke="#263238" stroke-linecap="round" stroke-linejoin="round"/>
<path d="M86.9578 96.2891L89.0806 96.3971L89.2733 96.9402L88.9638 97.5388L87.0658 97.6615L86.7388 96.7358L86.9578 96.2891Z" fill="#037DEB" stroke="#263238" stroke-linecap="round" stroke-linejoin="round"/>
<path d="M89.4045 98.1904L89.6965 99.0402C89.7431 99.1304 89.7674 99.2306 89.7674 99.3322C89.7674 99.4338 89.7431 99.5339 89.6965 99.6242C89.6422 99.6862 89.5729 99.7333 89.4952 99.7609C89.4175 99.7885 89.334 99.7957 89.2527 99.7818C89.0892 99.7672 88.9286 99.7118 88.765 99.703C88.2716 99.6826 87.819 100.088 87.3342 99.995C87.1444 99.4694 86.6656 98.6985 87.3138 98.462C87.4335 98.424 89.4746 98.3832 89.4045 98.1904Z" fill="#037DEB" stroke="#263238" stroke-linecap="round" stroke-linejoin="round"/>
<path d="M89.3961 100.582C89.4424 100.784 89.4755 100.989 89.4953 101.195C89.525 101.326 89.5207 101.462 89.4828 101.59C89.445 101.718 89.3749 101.835 89.2793 101.928C89.1547 101.997 89.0154 102.034 88.8734 102.036L87.1856 102.188C87.161 101.869 87.1561 101.55 87.171 101.23C87.2703 100.851 87.2002 100.883 87.5594 100.728C88.1288 100.486 88.8121 100.871 89.3961 100.582Z" fill="#037DEB" stroke="#263238" stroke-linecap="round" stroke-linejoin="round"/>
<path d="M83.2578 59.2754C83.2578 59.2754 83.8944 65.4278 83.9236 66.6455" stroke="#263238" stroke-linecap="round" stroke-linejoin="round"/>
<path d="M84.6304 59.3428L84.9282 62.7329" stroke="#263238" stroke-linecap="round" stroke-linejoin="round"/>
<path d="M89.3872 58.0605L89.7726 62.0347L90.3129 62.0872L90.1376 58.0985L89.3872 58.0605Z" fill="#037DEB" stroke="#263238" stroke-linecap="round" stroke-linejoin="round"/>
<path opacity="0.2" d="M100.357 101.741C100.327 101.831 100.279 101.913 100.214 101.983C99.1807 102.961 94.7686 104.048 90.9784 104.83V102.202L85.4626 100.789L84.6304 100.576L85.0041 96.4643L86.432 80.7547L87.6788 56.2997L87.7314 55.2602L98.404 54.7988C98.404 54.7988 98.4682 55.5843 98.5763 56.9567C99.28 65.6992 101.698 98.2922 100.357 101.741Z" fill="black" fill-opacity="0.7"/>
<path d="M100.358 101.741C100.328 101.831 100.279 101.913 100.215 101.983C99.181 102.961 94.7689 104.048 90.9787 104.83C87.8397 105.481 85.1387 105.922 85.1387 105.922C85.1387 105.922 83.0597 88.6445 83.0597 86.8283C83.0597 85.0121 79.7075 55.6077 79.7075 55.6077L87.7434 55.2602L98.4043 54.7988C98.4043 54.7988 98.4685 55.5843 98.5766 56.9567C99.2803 65.6992 101.698 98.2922 100.358 101.741Z" stroke="#263238" stroke-linecap="round" stroke-linejoin="round"/>
<path d="M106.013 140.948C106.081 140.332 105.111 131.493 105.094 130.533C105.047 127.905 104.302 124.456 104.302 124.456C103.263 121.799 102.454 115.676 99.68 111.748C96.906 107.821 96.9089 103.201 96.4476 99.2798C95.9862 95.3582 96.1001 95.697 96.2169 92.2163C96.3011 89.6018 96.185 86.9846 95.8694 84.3878C95.6387 82.0752 95.1774 78.0076 95.8694 76.1125C96.5614 74.2174 98.3718 73.7765 100.355 75.6745C102.337 77.5725 103.146 85.3543 103.146 86.315C103.146 87.2757 103.146 90.2774 103.841 91.4338C103.841 91.4338 107.768 89.4248 107.768 88.87C107.768 88.3152 107.652 83.4125 108.23 83.1497L105.92 75.6745L110.3 74.1182C111.125 74.8577 111.837 75.7135 112.414 76.6586C112.909 77.4411 113.322 78.2717 113.649 79.1376C115.498 84.0403 118.467 87.4596 119.08 88.87C119.694 90.2804 119.08 101.481 119.08 103.563C119.08 105.645 117.737 115.243 117.772 116.858C117.799 118.026 118.587 122.371 119.372 125.703C119.664 126.988 121.437 136.297 121.708 137.035L106.013 140.948Z" fill="white"/>
<path opacity="0.4" d="M109.471 82.6562C109.442 83.284 110.192 88.2889 110.192 88.2889C110.712 89.5358 107.874 93.7873 107.874 93.7873C107.26 94.1318 106.998 96.2693 106.998 96.2693C105.076 95.843 100.676 91.4192 100.676 91.4192C100.676 91.4192 100.156 93.2325 99.572 97.7205C98.988 102.209 102.691 112.869 104.267 120.231C105.844 127.592 105.094 130.524 105.094 130.524C105.047 127.896 104.302 124.447 104.302 124.447C103.263 121.79 102.454 115.667 99.68 111.739C96.906 107.812 96.9089 103.201 96.4476 99.2798C95.9862 95.3582 96.1001 95.697 96.2169 92.2163C96.3011 89.6018 96.185 86.9846 95.8694 84.3878C95.6387 82.0752 95.1774 78.0076 95.8694 76.1125C96.5614 74.2174 98.3718 73.7765 100.355 75.6745C102.337 77.5725 103.146 85.3543 103.146 86.315C103.146 87.2757 103.146 90.2774 103.841 91.4338C103.841 91.4338 107.768 89.4248 107.768 88.87C107.768 88.3152 107.652 83.4125 108.23 83.1497L105.92 75.6745L110.3 74.1182C111.125 74.8577 111.837 75.7135 112.414 76.6586C110.998 79.491 109.5 82.265 109.471 82.6562Z" fill="#037DEB"/>
<path opacity="0.4" d="M116.835 117.632C117.028 115.88 117.603 111.716 117.968 109.117C117.522 111.147 116.8 112.175 116.8 112.175C116.8 112.175 118.044 97.2826 118.167 96.3745C118.289 95.4664 119.545 91.3842 119.084 88.8555C119.697 90.2629 119.084 101.467 119.084 103.549C119.084 105.631 117.741 115.229 117.776 116.844C117.802 118.012 119.055 125.455 119.84 128.786C118.152 126.334 116.643 119.393 116.835 117.632Z" fill="#037DEB"/>
<path d="M121.703 137.021C120.78 134.364 117.816 118.45 117.781 116.844C117.746 115.238 119.089 105.628 119.089 103.549C119.089 101.47 119.703 90.2628 119.089 88.8554C118.476 87.4479 115.507 84.0257 113.658 79.123C112.96 77.2059 111.811 75.4845 110.309 74.1035L105.929 75.6599L108.239 83.1351C107.655 83.3979 107.777 88.3006 107.777 88.8554C107.777 89.4102 103.85 91.4191 103.85 91.4191C103.155 90.2511 103.155 87.261 103.155 86.3004C103.155 85.3397 102.346 77.555 100.364 75.6599C98.3808 73.7648 96.5675 74.1999 95.8784 76.0979C95.1893 77.9959 95.6477 82.0605 95.8784 84.3732C96.1944 86.9729 96.3106 89.593 96.2259 92.2104C96.1091 95.6911 95.9923 95.3465 96.4565 99.2739C96.9208 103.201 96.9179 107.821 99.689 111.748C102.46 115.676 103.272 121.799 104.311 124.456C104.311 124.456 106.274 138.638 106.022 140.948" stroke="#263238" stroke-linecap="round" stroke-linejoin="round"/>
<path d="M103.841 91.4189C103.841 91.4189 104.533 94.6514 106.093 96.2691" stroke="#263238" stroke-linecap="round" stroke-linejoin="round"/>
<path d="M104.262 92.8936C104.262 92.8936 107.182 93.7871 108.402 93.8425" stroke="#263238" stroke-linecap="round" stroke-linejoin="round"/>
<path d="M107.769 88.8548C107.769 88.8548 109.848 87.8941 111.177 88.4722" stroke="#263238" stroke-linecap="round" stroke-linejoin="round"/>
<path d="M108.23 83.1355C108.23 83.1355 109.848 82.9866 110.192 82.1777" stroke="#263238" stroke-linecap="round" stroke-linejoin="round"/>
<path d="M100.214 112.571C100.214 112.571 103.321 116.429 104.244 118.391" stroke="#263238" stroke-linecap="round" stroke-linejoin="round"/>
<path d="M118.281 95.6914C117.761 98.7545 117.066 107.129 116.835 108.63" stroke="#263238" stroke-linecap="round" stroke-linejoin="round"/>
<path d="M119.273 89.915C119.361 92.689 118.689 94.1315 118.689 94.1315" stroke="#263238" stroke-linecap="round" stroke-linejoin="round"/>
<path d="M95.3906 51.0996L116.8 56.7469C116.8 56.7469 109.275 79.5842 107.748 82.4166L105.196 102.325C105.196 102.325 91.5187 101.724 85.229 99.8227C85.229 99.8227 89.206 79.0907 89.4192 76.3255C89.6324 73.5603 95.3906 51.0996 95.3906 51.0996Z" fill="#037DEB"/>
<path opacity="0.2" d="M90.7861 75.0995L95.5048 54.9252C95.5048 54.9252 97.5342 53.9178 98.3197 52.998L113.658 57.3605C113.658 57.3605 113.705 58.8643 114.584 59.8279L106.843 82.1338L104.966 98.5763C104.966 98.5763 102.469 98.7749 102.23 100.62C102.23 100.62 94.1353 101.058 88.707 99.6275C88.707 99.6275 88.0676 97.6332 87.0894 96.3717L90.7861 75.0995Z" fill="black" fill-opacity="0.7"/>
<path d="M90.7861 75.0995L95.5048 54.9252C95.5048 54.9252 97.5342 53.9178 98.3197 52.998L113.658 57.3605C113.658 57.3605 113.705 58.8643 114.584 59.8279L106.843 82.1338L104.966 98.5763C104.966 98.5763 102.469 98.7749 102.23 100.62C102.23 100.62 94.1353 101.058 88.707 99.6275C88.707 99.6275 88.0676 97.6332 87.0894 96.3717L90.7861 75.0995Z" stroke="#263238" stroke-linecap="round" stroke-linejoin="round"/>
<path d="M94.7135 76.1478C94.7135 76.1478 96.1064 70.8918 101.012 71.835C105.918 72.7781 103.147 79.2547 103.147 79.2547C103.147 79.2547 103.176 84.4815 99.1957 83.7602C95.7443 83.1354 93.9047 81.2403 94.7135 76.1478Z" fill="#037DEB" stroke="#263238" stroke-linecap="round" stroke-linejoin="round"/>
<path d="M97.3708 56.8438C97.3708 56.8438 95.8874 62.8502 95.5049 64.0065" stroke="#263238" stroke-linecap="round" stroke-linejoin="round"/>
<path d="M98.6412 57.3633L97.7769 60.657" stroke="#263238" stroke-linecap="round" stroke-linejoin="round"/>
<path d="M109.471 59.6729L112.423 60.7124L112.099 61.638H111.177L109.211 61.1766L109.471 59.6729Z" fill="#037DEB" stroke="#263238" stroke-linecap="round" stroke-linejoin="round"/>
<path d="M108.981 61.6387L111.177 62.3307L111.638 62.7921L111.177 64.0068L108.633 63.1395L108.981 61.6387Z" fill="#037DEB" stroke="#263238" stroke-linecap="round" stroke-linejoin="round"/>
<path d="M108.633 63.7178L111.176 64.4186L110.817 65.3355H109.471L108.23 64.8157L108.633 63.7178Z" fill="#037DEB" stroke="#263238" stroke-linecap="round" stroke-linejoin="round"/>
<path d="M108.23 65.335L110.193 66.1438V66.719L109.702 67.1833L107.874 66.6636V65.6795L108.23 65.335Z" fill="#037DEB" stroke="#263238" stroke-linecap="round" stroke-linejoin="round"/>
<path d="M109.903 67.9429V68.8422C109.919 68.9413 109.91 69.0425 109.88 69.1378C109.849 69.2331 109.796 69.3199 109.725 69.3912C109.653 69.4308 109.571 69.4515 109.489 69.4515C109.406 69.4515 109.325 69.4308 109.252 69.3912C109.103 69.3211 108.96 69.216 108.82 69.1547C108.362 68.9707 107.798 69.2014 107.36 68.9561C107.36 68.3984 107.164 67.5136 107.854 67.4961C107.967 67.5049 109.903 68.1473 109.903 67.9429Z" fill="#037DEB" stroke="#263238" stroke-linecap="round" stroke-linejoin="round"/>
<path d="M109.095 70.1936C109.073 70.3994 109.036 70.6034 108.984 70.8038C108.92 71.0637 108.794 71.3528 108.534 71.4229C108.394 71.4461 108.251 71.4341 108.117 71.3879L106.476 70.9557C106.555 70.6485 106.652 70.3462 106.768 70.0505C106.99 69.7264 106.914 69.7322 107.302 69.7059C107.933 69.6796 108.447 70.2724 109.095 70.1936Z" fill="#037DEB" stroke="#263238" stroke-linecap="round" stroke-linejoin="round"/>
<path d="M103.552 57.7695L102.568 61.6385L103.059 61.8692L104.244 58.0557L103.552 57.7695Z" fill="#037DEB" stroke="#263238" stroke-linecap="round" stroke-linejoin="round"/>
<path d="M91.2212 83.751L94.2522 84.5365L94.0069 85.4825L93.0871 85.5643L91.0898 85.2694L91.2212 83.751Z" fill="#037DEB" stroke="#263238" stroke-linecap="round" stroke-linejoin="round"/>
<path d="M90.9002 85.752L93.1456 86.2542L93.6479 86.6747L93.2916 87.9244L90.6841 87.2762L90.9002 85.752Z" fill="#037DEB" stroke="#263238" stroke-linecap="round" stroke-linejoin="round"/>
<path d="M90.7333 87.8545L93.3263 88.3334L93.046 89.2765L91.7057 89.3933L90.4238 88.9816L90.7333 87.8545Z" fill="#037DEB" stroke="#263238" stroke-linecap="round" stroke-linejoin="round"/>
<path d="M90.4677 89.498L92.4942 90.1375L92.5438 90.7128L92.0941 91.215L90.2282 90.8529L90.1436 89.8747L90.4677 89.498Z" fill="#037DEB" stroke="#263238" stroke-linecap="round" stroke-linejoin="round"/>
<path d="M92.3567 91.9543L92.4355 92.8507C92.4595 92.9484 92.4601 93.0503 92.4372 93.1482C92.4144 93.2461 92.3688 93.3373 92.3041 93.4143C92.2354 93.4598 92.1562 93.4872 92.074 93.4939C91.9917 93.5005 91.9092 93.4862 91.834 93.4522C91.6792 93.3967 91.542 93.3033 91.3814 93.2566C90.9113 93.1106 90.3682 93.388 89.9214 93.1807C89.8688 92.6259 89.6031 91.7615 90.2864 91.6944C90.3915 91.6885 92.3742 92.1587 92.3567 91.9543Z" fill="#037DEB" stroke="#263238" stroke-linecap="round" stroke-linejoin="round"/>
<path d="M91.7465 94.266C91.7423 94.4783 91.7228 94.6901 91.688 94.8996C91.6442 95.1624 91.545 95.4632 91.2938 95.5537C91.1559 95.5888 91.0113 95.5888 90.8734 95.5537L89.2031 95.2617C89.2593 94.9479 89.3344 94.6378 89.428 94.3331C89.6207 93.9915 89.5448 94.0032 89.9302 93.9448C90.5434 93.8542 91.1041 94.4003 91.7465 94.266Z" fill="#037DEB" stroke="#263238" stroke-linecap="round" stroke-linejoin="round"/>
<path d="M103.841 97.1016C103.841 97.1016 104.536 89.3519 104.536 88.5723" stroke="#263238" stroke-linecap="round" stroke-linejoin="round"/>
<path d="M102.454 96.7539C102.454 96.7539 102.746 92.7242 102.799 92.0234" stroke="#263238" stroke-linecap="round" stroke-linejoin="round"/>
<path d="M97.0374 93.8428L96.1001 98.4301H97.0374L97.7178 93.8428H97.0374Z" fill="#037DEB" stroke="#263238" stroke-linecap="round" stroke-linejoin="round"/>
<path opacity="0.2" d="M107.798 82.3032C105.772 81.8798 103.964 81.2578 102.627 80.3614C102.627 80.3614 103.596 83.1471 107.033 87.895L105.185 102.326C105.185 102.326 96.2584 101.934 89.5132 100.781C91.5864 94.941 95.3532 83.8742 94.9064 81.6812C94.302 78.6707 96.4365 75.1171 96.4365 75.1171C103.185 73.9024 109.728 68.8011 114.219 64.4883C111.933 71.2481 108.811 80.3001 107.798 82.3032Z" fill="black" fill-opacity="0.7"/>
<path d="M95.3906 51.0996L116.8 56.7469C116.8 56.7469 109.275 79.5842 107.748 82.4166L105.196 102.325C105.196 102.325 91.5187 101.724 85.229 99.8227C85.229 99.8227 89.206 79.0907 89.4192 76.3255C89.6324 73.5603 95.3906 51.0996 95.3906 51.0996Z" stroke="#263238" stroke-linecap="round" stroke-linejoin="round"/>
<path d="M107.26 96.5616L104.244 118.392C103.572 116.964 101.742 114.528 100.795 113.311C100.445 112.855 100.211 112.572 100.211 112.572L99.6771 111.749C96.906 107.821 96.906 103.202 96.4447 99.2743C95.9833 95.3469 96.0972 95.6915 96.214 92.2108C96.2989 89.5983 96.1837 86.9831 95.8694 84.3882C95.6387 82.0755 95.1774 78.008 95.8694 76.1129C96.2081 75.1843 96.8184 74.6062 97.5834 74.4835C98.3485 74.3609 99.3354 74.7113 100.355 75.6749C102.337 77.57 103.146 85.3547 103.146 86.3154C103.146 87.276 103.146 90.2778 103.841 91.4341C103.841 91.4195 105.704 94.944 107.26 96.5616Z" fill="white"/>
<path opacity="0.4" d="M99.4493 110.191C100.08 110.997 100.509 112.159 100.795 113.31C100.445 112.854 100.211 112.571 100.211 112.571L99.6771 111.747C96.906 107.82 96.906 103.201 96.4447 99.2732C95.9833 95.3458 96.0972 95.6904 96.214 92.2097C96.2989 89.5972 96.1837 86.982 95.8694 84.3871C95.6387 82.0744 95.1774 78.0069 95.8694 76.1118C96.2081 75.1832 96.8184 74.6051 97.5835 74.4824C99.0435 74.8971 100.503 76.3833 101.012 78.9267C101.888 83.1957 97.9368 79.7472 97.0228 83.3651C96.1088 86.9829 97.4375 87.9582 97.9835 88.8693C98.5295 89.7803 97.8316 91.7893 97.0228 94.4873C96.214 97.1854 97.7178 107.975 99.4493 110.191Z" fill="#037DEB"/>
<path d="M107.261 96.561C105.701 94.9433 103.841 91.4188 103.841 91.4188C103.146 90.2508 103.146 87.2607 103.146 86.3001C103.146 85.3394 102.337 77.5547 100.355 75.6596C98.372 73.7645 96.5587 74.1996 95.8696 76.0976C95.1805 77.9956 95.6389 82.0602 95.8696 84.3729C96.1856 86.9726 96.3018 89.5927 96.2171 92.2102C96.1003 95.6908 95.9835 95.3462 96.4478 99.2736C96.912 103.201 96.9091 107.82 99.6802 111.748L100.215 112.571C100.215 112.571 103.321 116.429 104.244 118.391" stroke="#263238" stroke-linecap="round" stroke-linejoin="round"/>
<path d="M97.0381 87.3222C97.0381 87.3222 99.6865 85.9528 101.012 86.0696" stroke="#263238" stroke-linecap="round" stroke-linejoin="round"/>
<path opacity="0.2" d="M56.5925 49.8772C56.5925 49.8772 49.894 42.5013 49.4327 42.0487C48.9713 41.5961 48.6238 33.7296 47.3507 30.2665C46.0776 26.8033 45.4615 6.46846 45.4615 6.46846C45.4615 6.46846 44.2497 4.96758 40.8333 5.77642C37.4169 6.58526 34.0676 5.08146 30.257 7.2773C26.4464 9.47313 33.837 40.8807 33.837 40.8807L41.3384 64.7867L56.5925 49.8772Z" fill="black" fill-opacity="0.7"/>
<path d="M61.1945 49.9324C61.1945 49.9324 58.1928 69.1081 55.0625 71.6485C53.2551 73.1085 50.4373 73.7801 47.9377 73.6925C46.1273 73.6282 44.4805 73.1727 43.511 72.3463C41.2013 70.3812 37.963 69.3417 36.3512 68.0715C34.7393 66.8013 34.7335 62.2957 33.694 58.4822C32.6545 54.6687 31.1507 54.5548 30.8061 50.7442C30.4615 46.9336 29.0716 35.2682 26.5604 32.0299C24.0492 28.7916 23.9908 26.2541 22.9513 22.9604C21.9118 19.6666 14.3081 7.7501 14.3081 7.7501L32.8443 3.9541C32.8443 3.9541 34.6663 11.4965 36.6169 17.6489C37.5425 20.5689 38.4974 23.1794 39.2975 24.5167C40.8338 27.1035 42.1645 29.807 43.2774 32.6022C45.374 34.7981 46.5215 39.6628 46.869 43.9231L51.833 46.6912C55.6495 47.7337 61.1945 49.9324 61.1945 49.9324Z" fill="white"/>
<path opacity="0.4" d="M61.1948 49.932C61.1948 49.932 58.1931 69.1076 55.0628 71.648C53.2553 73.108 50.4375 73.7796 47.938 73.692C42.0104 72.232 40.4161 68.9266 39.6131 68.1265C38.5444 67.0607 37.1399 60.5666 37.9107 56.7881C38.6816 53.0097 38.1268 51.611 37.4903 49.7655C36.0799 45.6775 40.3811 43.4759 40.8249 41.9283C41.2687 40.3807 41.1169 31.7258 39.1809 28.9109C38.1531 27.4129 35.5047 19.6925 36.6201 17.6543C37.5457 20.5743 38.5006 23.1848 39.3007 24.5221C40.8369 27.1089 42.1677 29.8124 43.2806 32.6076C45.3772 34.8035 46.5247 39.6682 46.8722 43.9285L51.8362 46.6966C55.6497 47.7332 61.1948 49.932 61.1948 49.932Z" fill="#037DEB"/>
<path d="M38.5589 48.583C38.5589 48.583 37.5135 49.8123 36.5908 49.8123" stroke="#263238" stroke-linecap="round" stroke-linejoin="round"/>
<path d="M40.8336 52.7383C40.8336 52.7383 39.7094 55.1268 37.9136 55.6583" stroke="#263238" stroke-linecap="round" stroke-linejoin="round"/>
<path d="M38.8359 66.7373C38.8359 66.7373 41.3793 65.6394 41.7822 63.791" stroke="#263238" stroke-linecap="round" stroke-linejoin="round"/>
<path d="M51.8392 46.6943C51.8392 46.6943 51.2026 47.5032 51.2026 48.1543" stroke="#263238" stroke-linecap="round" stroke-linejoin="round"/>
<path d="M32.8559 3.9541C32.8559 3.9541 36.8213 20.3557 39.3091 24.5284C40.8454 27.1152 42.1762 29.8187 43.2891 32.6139C45.3857 34.8097 46.5332 39.6774 46.8807 43.9377L51.8447 46.7058C55.6553 47.7453 61.1887 49.9412 61.1887 49.9412C61.1887 49.9412 58.1869 69.1168 55.0567 71.6572C51.9265 74.1976 45.8441 74.3028 43.5081 72.3405C41.1721 70.3783 37.9601 69.3358 36.3483 68.0656C34.7364 66.7954 34.7306 62.2899 33.6911 58.4763C32.6515 54.6628 31.1477 54.5489 30.8032 50.7383C30.4586 46.9277 29.0687 35.2623 26.5575 32.0241C24.0463 28.7858 23.9879 26.2483 22.9484 22.9545C21.9089 19.6608 14.3081 7.7501 14.3081 7.7501" stroke="#263238" stroke-linecap="round" stroke-linejoin="round"/>
<path d="M68.2171 48.6885L37.5601 95.8786L44.7958 96.6845L66.7805 97.5984L69.0318 55.6235L68.2171 48.6885Z" fill="#263238" stroke="#263238" stroke-linecap="round" stroke-linejoin="round"/>
<path d="M68.2171 48.6858L65.3847 96.7928L37.5601 95.8788L39.7559 59.0167L40.4392 47.5703L52.563 48.058L68.2171 48.6858Z" fill="#757575"/>
<path d="M61.2207 91.2529C63.0914 91.2529 64.6079 89.7364 64.6079 87.8657C64.6079 85.995 63.0914 84.4785 61.2207 84.4785C59.35 84.4785 57.8335 85.995 57.8335 87.8657C57.8335 89.7364 59.35 91.2529 61.2207 91.2529Z" fill="#BFBFBF" stroke="#263238" stroke-miterlimit="10"/>
<path d="M60.2661 85.6182L62.5612 85.9189" stroke="#263238" stroke-linecap="round" stroke-linejoin="round"/>
<path d="M59.6494 86.1758L63.0979 86.5116" stroke="#263238" stroke-linecap="round" stroke-linejoin="round"/>
<path d="M59.2671 89.5742L62.7185 89.91" stroke="#263238" stroke-linecap="round" stroke-linejoin="round"/>
<path d="M60.7768 86.9435C60.8716 86.9671 60.9718 86.9533 61.0566 86.9048C61.1415 86.8564 61.2044 86.7772 61.2323 86.6836L61.4893 86.7099L61.2294 89.1481L60.8469 89.1072L61.0454 87.2472L60.7534 87.215L60.7768 86.9435Z" fill="#263238"/>
<path d="M62.0531 87.0453C62.205 87.0453 62.2751 87.1592 62.2575 87.3198V87.349L62.1086 87.3344V87.3081C62.1086 87.238 62.0911 87.2059 62.0415 87.2001C61.9918 87.1942 61.9597 87.2205 61.9539 87.2906C61.948 87.3607 61.9714 87.422 62.0648 87.5213C62.1123 87.5614 62.1494 87.6123 62.1733 87.6697C62.1972 87.7271 62.207 87.7893 62.2021 87.8512C62.1845 88.0118 62.0969 88.0936 61.9422 88.0761C61.7874 88.0586 61.7203 87.9593 61.7349 87.8016V87.7403L61.8809 87.7549V87.8279C61.8809 87.898 61.9013 87.9272 61.9509 87.933C62.0006 87.9388 62.0356 87.9155 62.0415 87.8454C62.0473 87.7753 62.0239 87.714 61.9305 87.6147C61.8831 87.5746 61.8459 87.5237 61.822 87.4663C61.7981 87.4089 61.7883 87.3467 61.7933 87.2848C61.8137 87.1096 61.9042 87.0161 62.0531 87.0453Z" fill="#263238"/>
<path d="M62.3276 87.0869L62.8123 87.1366L62.7948 87.2796L62.6313 87.2621L62.5407 88.1148L62.386 88.1002L62.4765 87.2446L62.313 87.2271L62.3276 87.0869Z" fill="#263238"/>
<path d="M54.1189 50.8208L48.687 49.6355C48.5468 49.6049 48.4083 49.6938 48.3777 49.834L47.6387 53.2203C47.6081 53.3606 47.697 53.499 47.8372 53.5296L53.2691 54.715C53.4093 54.7456 53.5478 54.6567 53.5784 54.5165L54.3173 51.1301C54.3479 50.9899 54.2591 50.8514 54.1189 50.8208Z" fill="white" stroke="#263238" stroke-linecap="round" stroke-linejoin="round"/>
<path d="M50.4434 52.9285C50.4421 52.9051 50.4361 52.8823 50.4259 52.8613C50.423 52.8498 50.423 52.8378 50.4259 52.8263C50.4304 52.8175 50.4375 52.8103 50.4463 52.8058C50.5251 52.7358 50.4288 52.6423 50.3529 52.6248C50.3266 52.6183 50.2991 52.6186 50.2731 52.6258C50.247 52.6329 50.2232 52.6467 50.2039 52.6657L50.2653 52.4379L50.5339 52.4963L50.5631 52.3562L50.1601 52.2686C50.1516 52.2881 50.1457 52.3088 50.1426 52.3299C50.1426 52.3503 50.1689 52.3562 50.1689 52.3795C50.1689 52.4029 50.1689 52.4 50.1689 52.4116C50.1742 52.4287 50.1857 52.4433 50.201 52.4525C50.2156 52.4525 50.2302 52.4788 50.2273 52.4963C50.2293 52.502 50.2293 52.5082 50.2273 52.5138C50.2162 52.5407 50.1968 52.5632 50.1718 52.5781C50.1603 52.5803 50.15 52.5865 50.1426 52.5956V52.6131C50.1426 52.6336 50.1193 52.6452 50.1017 52.6569C50.0842 52.6686 50.0404 52.762 50.0229 52.8263L50.1689 52.8584V52.8292C50.1835 52.7591 50.2215 52.7416 50.2682 52.7504C50.3149 52.7591 50.3441 52.7942 50.3266 52.8642L50.2799 53.0803C50.2799 53.1475 50.2302 53.1679 50.1806 53.1562C50.1309 53.1446 50.1076 53.1154 50.1222 53.0453L50.1426 52.9548L49.9966 52.9226L49.9791 53.0044C49.9678 53.0361 49.9634 53.0698 49.9661 53.1033C49.9689 53.1369 49.9788 53.1694 49.9951 53.1988C50.0115 53.2282 50.0339 53.2538 50.0609 53.2739C50.0879 53.2939 50.1189 53.308 50.1518 53.3151C50.1847 53.3222 50.2187 53.3222 50.2516 53.3152C50.2845 53.3081 50.3155 53.2941 50.3425 53.2741C50.3696 53.2541 50.392 53.2285 50.4084 53.1991C50.4248 53.1697 50.4347 53.1372 50.4375 53.1037C50.4479 53.0459 50.4499 52.9869 50.4434 52.9285Z" fill="#263238"/>
<path d="M52.3498 53.3376C52.3471 53.3146 52.3412 53.292 52.3323 53.2705C52.3295 53.259 52.3295 53.247 52.3323 53.2354C52.3368 53.2266 52.3439 53.2195 52.3527 53.215C52.4287 53.1449 52.3323 53.0515 52.2593 53.034C52.2331 53.0274 52.2056 53.0278 52.1795 53.0349C52.1534 53.0421 52.1296 53.0558 52.1104 53.0748L52.1717 52.8471L52.4403 52.9055L52.4695 52.7653L52.0666 52.6777C52.0568 52.6968 52.0508 52.7177 52.0491 52.7391C52.0491 52.7595 52.0724 52.7653 52.0753 52.7887C52.0783 52.8121 52.0753 52.8091 52.0753 52.8208C52.0807 52.8379 52.0921 52.8525 52.1075 52.8617C52.1221 52.8617 52.1367 52.888 52.1337 52.9055C52.1308 52.923 52.1337 52.9055 52.1337 52.923C52.1225 52.9507 52.1018 52.9735 52.0753 52.9873C52.065 52.9903 52.0558 52.9964 52.0491 53.0048C52.0491 53.0048 52.0491 53.0048 52.0491 53.0223C52.0491 53.0398 52.0286 53.0544 52.0111 53.0661C51.9936 53.0778 51.9498 53.1712 51.9323 53.2354L52.0783 53.2676V53.2384C52.0929 53.1683 52.1308 53.1508 52.1775 53.1595C52.2243 53.1683 52.2505 53.2033 52.2359 53.2734L52.1892 53.4895C52.1892 53.5566 52.1396 53.5771 52.0899 53.5654C52.0403 53.5537 52.0169 53.5245 52.0315 53.4544L52.052 53.3639L51.906 53.3318L51.8885 53.4136C51.8796 53.4443 51.8772 53.4765 51.8813 53.5082C51.8855 53.5398 51.896 53.5704 51.9124 53.5978C51.9288 53.6252 51.9507 53.649 51.9766 53.6677C52.0025 53.6863 52.032 53.6995 52.0632 53.7063C52.0945 53.7131 52.1268 53.7134 52.1581 53.7072C52.1895 53.7011 52.2192 53.6885 52.2455 53.6704C52.2718 53.6523 52.2942 53.6289 52.3111 53.6018C52.328 53.5747 52.3392 53.5444 52.344 53.5128C52.3557 53.4552 52.3576 53.396 52.3498 53.3376Z" fill="#263238"/>
<path d="M51.4941 53.1215H51.5087C51.5087 53.1069 51.5087 53.0923 51.5087 53.0719H51.573L51.6226 52.847C51.6338 52.815 51.6381 52.7811 51.6352 52.7473C51.6323 52.7136 51.6223 52.6808 51.6058 52.6512C51.5893 52.6216 51.5667 52.5959 51.5396 52.5756C51.5124 52.5554 51.4812 52.5412 51.4481 52.5339C51.415 52.5266 51.3808 52.5265 51.3476 52.5334C51.3145 52.5403 51.2832 52.5542 51.2558 52.5742C51.2284 52.5941 51.2055 52.6196 51.1887 52.649C51.1719 52.6784 51.1616 52.7111 51.1583 52.7448V52.7857C51.1788 52.8032 51.1904 52.8324 51.2109 52.847C51.2313 52.8616 51.2634 52.847 51.2547 52.8967C51.2459 52.9463 51.2372 52.9375 51.2547 52.9521C51.2722 52.9667 51.2751 52.9521 51.278 52.9726C51.2816 52.9772 51.2835 52.9828 51.2835 52.9886C51.2835 52.9944 51.2816 53.0001 51.278 53.0047C51.278 53.0047 51.2576 53.0047 51.2547 53.031C51.2518 53.0573 51.2547 53.0748 51.2372 53.0806C51.2196 53.0865 51.1817 53.0456 51.1496 53.0485C51.1381 53.0518 51.1277 53.0582 51.1194 53.0669C51.1112 53.0757 51.1055 53.0864 51.1028 53.0981C51.088 53.1478 51.0772 53.1986 51.0707 53.25C51.0601 53.2809 51.0564 53.3137 51.0599 53.3462C51.0634 53.3787 51.074 53.41 51.0911 53.4379C51.1081 53.4658 51.131 53.4896 51.1583 53.5076C51.1856 53.5256 51.2165 53.5373 51.2488 53.542C51.282 53.5509 51.3168 53.5524 51.3506 53.5463C51.3844 53.5402 51.4164 53.5268 51.4445 53.5069C51.4703 53.4846 51.4921 53.4579 51.5087 53.4281C51.5219 53.4132 51.5291 53.394 51.5291 53.3741C51.5291 53.3542 51.5219 53.335 51.5087 53.3201H51.4941L51.4737 53.25C51.4737 53.25 51.4737 53.25 51.4941 53.2325C51.5146 53.2149 51.4941 53.177 51.5233 53.1565C51.5525 53.1361 51.4883 53.1273 51.4941 53.1215ZM51.3715 53.3201C51.3569 53.3901 51.3189 53.4106 51.2693 53.3989C51.2196 53.3872 51.1963 53.3551 51.2109 53.285L51.3277 52.7594C51.3423 52.6893 51.3773 52.6689 51.427 52.6806C51.4766 52.6923 51.5 52.7244 51.4854 52.7945L51.3715 53.3201Z" fill="#263238"/>
<path d="M51.7538 53.4833L51.7217 53.6322L51.5728 53.6001L51.6049 53.4512L51.7538 53.4833Z" fill="#263238"/>
<path d="M52.975 53.2237C52.9925 53.2237 52.9925 53.1565 52.9984 53.1332C53.0096 53.1012 53.0139 53.0672 53.011 53.0334C53.0081 52.9997 52.9981 52.9669 52.9816 52.9373C52.9651 52.9078 52.9425 52.882 52.9153 52.8618C52.8882 52.8416 52.857 52.8273 52.8239 52.8201C52.7908 52.8128 52.7566 52.8126 52.7234 52.8195C52.6902 52.8265 52.6589 52.8404 52.6315 52.8603C52.6042 52.8802 52.5813 52.9057 52.5645 52.9352C52.5477 52.9646 52.5373 52.9972 52.5341 53.031L52.4903 53.2266C52.5282 53.2616 52.4903 53.3171 52.5078 53.358C52.5253 53.3989 52.5078 53.358 52.5078 53.3755C52.5078 53.393 52.464 53.4018 52.464 53.4252C52.464 53.4485 52.464 53.4252 52.464 53.4252C52.464 53.4252 52.4406 53.4602 52.426 53.4777C52.4168 53.4916 52.4118 53.5078 52.4115 53.5244C52.4002 53.5564 52.3959 53.5904 52.3988 53.6241C52.4017 53.6579 52.4117 53.6907 52.4282 53.7202C52.4447 53.7498 52.4673 53.7756 52.4945 53.7958C52.5217 53.816 52.5528 53.8303 52.5859 53.8375C52.619 53.8448 52.6533 53.845 52.6864 53.8381C52.7196 53.8311 52.7509 53.8172 52.7783 53.7973C52.8057 53.7774 52.8285 53.7518 52.8453 53.7224C52.8621 53.693 52.8725 53.6604 52.8757 53.6266L52.9108 53.466C52.9108 53.4252 52.9633 53.3171 52.9108 53.285C52.8582 53.2529 52.8874 53.285 52.8816 53.2646C52.878 53.2578 52.8761 53.2503 52.8761 53.2427C52.8761 53.235 52.878 53.2275 52.8816 53.2208C52.9166 53.1916 52.9429 53.2412 52.975 53.2237ZM52.7969 53.4806C52.7969 53.4982 52.7677 53.504 52.7531 53.5274C52.7419 53.5564 52.735 53.5869 52.7326 53.6179C52.718 53.688 52.6801 53.7055 52.6334 53.6967C52.5866 53.688 52.5575 53.6529 52.575 53.5828C52.575 53.5624 52.6012 53.504 52.5954 53.4865C52.5896 53.469 52.5662 53.4865 52.5545 53.4514C52.5458 53.4209 52.5458 53.3885 52.5545 53.358C52.5559 53.3513 52.5559 53.3443 52.5545 53.3376C52.5545 53.3376 52.5399 53.3113 52.5545 53.2996C52.5691 53.2879 52.5545 53.2996 52.5545 53.2996C52.5545 53.2996 52.5545 53.2616 52.5545 53.2354C52.5545 53.2091 52.5545 53.2354 52.5545 53.2354C52.648 53.2704 52.645 53.1273 52.6596 53.0689C52.6742 53.0105 52.7122 52.9784 52.7589 52.9901C52.8056 53.0018 52.8319 53.0339 52.8173 53.101C52.7975 53.1605 52.7857 53.2224 52.7823 53.285C52.7945 53.2869 52.8057 53.2928 52.8142 53.3018C52.8226 53.3108 52.8279 53.3223 52.829 53.3346C52.8261 53.3501 52.8261 53.3659 52.829 53.3814C52.829 53.3814 52.829 53.4076 52.829 53.4193C52.829 53.431 52.8115 53.4193 52.7998 53.4193C52.7917 53.4225 52.7846 53.4276 52.779 53.4343C52.7734 53.4409 52.7695 53.4488 52.7677 53.4573L52.7969 53.4806Z" fill="#263238"/>
<path d="M51.3423 51.1006L52.3292 51.3167" stroke="#263238" stroke-linecap="round" stroke-linejoin="round"/>
<path d="M49.1001 50.6104L50.8521 50.9958" stroke="#263238" stroke-linecap="round" stroke-linejoin="round"/>
<path d="M48.9541 51.2871L50.1104 51.5382" stroke="#263238" stroke-linecap="round" stroke-linejoin="round"/>
<path opacity="0.4" d="M38.8359 95.452C40.3704 95.0506 41.9482 94.8387 43.5342 94.8213C46.3841 94.7512 48.2062 95.2914 50.5422 94.135C52.8782 92.9787 54.3937 95.0607 56.6275 93.9044C58.8613 92.748 59.8979 90.8968 61.1885 90.9376C62.4792 90.9785 64.4005 70.2962 65.0196 66.7367C65.6386 63.1772 66.9555 53.255 67.4081 51.2402L64.8648 96.0827L38.8359 95.452Z" fill="white"/>
<path d="M38.9586 86.6279L46.0805 95.2915L38.5586 94.8243L38.9586 86.6279Z" fill="#037DEB" stroke="#263238" stroke-linecap="round" stroke-linejoin="round"/>
<path d="M57.8594 69.4971L57.7455 72.7938C57.7297 73.2538 57.6234 73.7061 57.4327 74.125C57.242 74.5439 56.9707 74.9211 56.6341 75.2351C56.2976 75.5491 55.9026 75.7938 55.4715 75.9551C55.0404 76.1163 54.5818 76.1911 54.1218 76.1751L50.7346 76.0554C50.2733 76.0396 49.8197 75.9328 49.3999 75.7412C48.98 75.5496 48.6021 75.2769 48.2879 74.9389C47.9737 74.6008 47.7294 74.204 47.569 73.7712C47.4086 73.3385 47.3353 72.8783 47.3532 72.4171L47.5051 68.1247C47.5378 67.1962 47.9379 66.3188 48.6175 65.6852C49.297 65.0517 50.2003 64.7139 51.1288 64.7463L54.516 64.8631C54.6094 64.8631 54.7029 64.8631 54.808 64.8835C54.334 65.3394 54.0348 65.9471 53.9625 66.6007C53.8901 67.2544 54.0492 67.9128 54.412 68.4613C54.7748 69.0098 55.3184 69.4139 55.9482 69.6031C56.5781 69.7923 57.2543 69.7548 57.8594 69.4971Z" fill="#037DEB" stroke="#263238" stroke-linecap="round" stroke-linejoin="round"/>
<path d="M58.4704 66.6497C58.4598 66.9667 58.3555 67.2733 58.1706 67.531C57.9857 67.7886 57.7285 67.9856 57.4317 68.0971C57.1348 68.2085 56.8115 68.2294 56.5028 68.1571C56.194 68.0848 55.9136 67.9226 55.6971 67.6909C55.4806 67.4593 55.3376 67.1686 55.2863 66.8557C55.235 66.5428 55.2776 66.2216 55.4088 65.9329C55.54 65.6443 55.7539 65.401 56.0234 65.2338C56.2929 65.0667 56.6059 64.9833 56.9228 64.9941C57.3473 65.0093 57.7484 65.1921 58.0385 65.5024C58.3285 65.8127 58.4838 66.2252 58.4704 66.6497Z" fill="#037DEB" stroke="#263238" stroke-linecap="round" stroke-linejoin="round"/>
<path opacity="0.4" d="M48.3174 72.8255L53.296 68.5682C53.296 68.5682 52.6653 66.2877 53.296 65.5664H50.9045C50.3286 65.5645 49.7736 65.7826 49.3531 66.176C48.9325 66.5695 48.678 67.1086 48.6415 67.6834L48.3174 72.8255Z" fill="white"/>
<path opacity="0.4" d="M56.1893 66.7376L57.2552 65.5697C57.2552 65.5697 56.5923 65.1229 56.1893 65.5697C55.7864 66.0164 56.1893 66.7376 56.1893 66.7376Z" fill="white"/>
<path d="M55.6699 92.1729L63.697 92.5203" stroke="#263238" stroke-linecap="round" stroke-linejoin="round"/>
<path d="M52.8896 92.9824L63.6966 93.5606" stroke="#263238" stroke-linecap="round" stroke-linejoin="round"/>
<path d="M60.8672 95.292H63.6967" stroke="#263238" stroke-linecap="round" stroke-linejoin="round"/>
<path opacity="0.2" d="M51.03 65.8086C46.8894 67.8001 42.4043 60.8242 40.8333 59.8635C40.446 59.619 40.085 59.3352 39.7559 59.0167L40.4391 47.5703L52.5601 48.058C52.4812 49.7632 52.5075 51.6466 52.8871 52.73C53.7047 55.0922 55.1676 63.8201 51.03 65.8086Z" fill="black" fill-opacity="0.7"/>
<path opacity="0.4" d="M46.3896 66.1653C46.3896 66.1653 49.7009 67.6019 51.2018 66.7493C52.7027 65.8967 54.3204 64.2673 54.5511 60.6494C54.5511 60.6494 56.5221 65.7448 52.5479 67.272C48.5738 68.7991 46.3896 66.1653 46.3896 66.1653Z" fill="white"/>
<path opacity="0.4" d="M45.0991 68.2032C45.0991 68.2032 51.8151 70.0077 54.6884 66.7432C54.6884 66.7432 54.303 68.5565 51.2019 69.0792C48.1009 69.6018 45.0991 68.2032 45.0991 68.2032Z" fill="white"/>
<path opacity="0.4" d="M55.9005 56.5373C55.3895 55.6292 56.0173 63.7906 56.0173 63.7906C56.0173 63.7906 56.94 58.4003 55.9005 56.5373Z" fill="white"/>
<path d="M68.2171 48.6858L65.3847 96.7928L37.5601 95.8788L39.7559 59.0167L40.4392 47.5703L52.563 48.058L68.2171 48.6858Z" stroke="#263238" stroke-linecap="round" stroke-linejoin="round"/>
<path opacity="0.4" d="M66.8096 97.0493L65.7964 96.7923L68.2171 52.7383L68.6463 55.6466L66.8096 97.0493Z" fill="white"/>
<path d="M51.0302 65.8086C50.6473 66.012 50.2215 66.1216 49.7879 66.1282C49.3544 66.1348 48.9255 66.0382 48.5365 65.8465C47.8634 65.4933 47.3203 64.9349 46.986 64.2522C45.8326 62.1731 42.7111 57.4369 42.1359 56.0762C41.5607 54.7155 40.2875 50.8669 39.0173 49.2522C37.7471 47.6374 37.0522 45.208 37.0522 45.208L36.5908 21.6436C37.2829 25.0512 39.1896 28.9202 39.1896 28.9202C40.8462 29.7822 42.2538 31.0551 43.2776 32.6169C43.5756 32.9343 43.8426 33.2794 44.0748 33.6477C45.9611 36.5677 46.875 41.8237 46.9743 45.9117C47.0911 50.534 48.592 52.6277 51.0185 56.6544C53.445 60.681 52.607 64.9121 51.0302 65.8086Z" fill="white"/>
<path opacity="0.4" d="M51.0297 65.8083C50.6452 66.0069 50.22 66.1137 49.7873 66.1202C49.3546 66.1268 48.9263 66.0331 48.536 65.8463C49.8617 65.4842 51.602 64.8038 51.202 63.8023C50.5742 62.2021 48.7375 64.5761 47.8148 63.8023C46.8921 63.0285 43.5399 58.5901 45.6686 56.6366C47.7973 54.6831 47.1286 51.4069 45.6686 50.4842C44.2086 49.5614 45.1576 47.3627 45.6189 43.9025C45.9109 41.8089 44.9094 37.0668 44.0859 33.6445C45.9723 36.5645 46.8862 41.8205 46.9855 45.9085C47.1023 50.5309 48.6032 52.6245 51.0297 56.6512C53.4562 60.6779 52.6065 64.9674 51.0297 65.8083Z" fill="#037DEB"/>
<path d="M36.5908 21.6289C37.2829 25.0365 39.1896 28.9055 39.1896 28.9055C40.8462 29.7676 42.2538 31.0404 43.2776 32.6023C45.7041 35.1427 46.8605 41.2659 46.9743 45.8853C47.0882 50.5048 48.592 52.6013 51.0185 56.628C53.4451 60.6547 52.7705 64.8537 51.0185 65.8085C49.798 66.4772 48.1307 66.3312 46.9743 64.2521C45.818 62.1731 42.6995 57.4369 42.1242 56.0761C41.549 54.7154 40.2759 50.8669 39.0057 49.2521C37.7355 47.6373 37.0405 45.2079 37.0405 45.2079" stroke="#263238" stroke-linecap="round" stroke-linejoin="round"/>
<path d="M44.0923 55.6465C44.0923 55.6465 45.9786 55.4771 46.8429 54.7705" stroke="#263238" stroke-linecap="round" stroke-linejoin="round"/>
<path d="M36.3601 45.6719C36.3601 45.6719 35.9922 46.5479 37.9194 47.4239" stroke="#263238" stroke-linecap="round" stroke-linejoin="round"/>
</g>
<defs>
<filter id="filter0_d" x="-4" y="0" width="154" height="154" filterUnits="userSpaceOnUse" color-interpolation-filters="sRGB">
<feFlood flood-opacity="0" result="BackgroundImageFix"/>
<feColorMatrix in="SourceAlpha" type="matrix" values="0 0 0 0 0 0 0 0 0 0 0 0 0 0 0 0 0 0 127 0"/>
<feOffset dy="4"/>
<feGaussianBlur stdDeviation="2"/>
<feColorMatrix type="matrix" values="0 0 0 0 0 0 0 0 0 0 0 0 0 0 0 0 0 0 0.25 0"/>
<feBlend mode="normal" in2="BackgroundImageFix" result="effect1_dropShadow"/>
<feBlend mode="normal" in="SourceGraphic" in2="effect1_dropShadow" result="shape"/>
</filter>
</defs>
</svg>
