<svg id="Capa_1" data-name="Capa 1" xmlns="http://www.w3.org/2000/svg" viewBox="0 0 64 64"><defs><style>.cls-1{fill:#5387cc;}</style></defs><title>conecty-icono-editar</title><rect class="cls-1" x="40.83" y="17.91" width="5.26" height="5.26" transform="translate(-1.79 36.74) rotate(-45)"/><polygon class="cls-1" points="19.02 41.25 17.16 46.83 22.74 44.97 40.63 27.08 36.91 23.36 19.02 41.25"/><path class="cls-1" d="M32,0A32,32,0,1,0,64,32,32,32,0,0,0,32,0ZM51.41,21.95l-6.55,6.54L25.23,48.13a2,2,0,0,1-.78.48l-9.82,3.27A2,2,0,0,1,14,52a2,2,0,0,1-1.9-2.63l3.27-9.82a2,2,0,0,1,.48-.78L35.5,19.12,42,12.57a2.06,2.06,0,0,1,2.83,0l6.55,6.55A2,2,0,0,1,51.41,21.95Z"/></svg>