
<svg class="animated" id="freepik_stories-container-ship" xmlns="http://www.w3.org/2000/svg" viewBox="0 0 500 500" version="1.1" xmlns:xlink="http://www.w3.org/1999/xlink" xmlns:svgjs="http://svgjs.com/svgjs"><g id="freepik--background-simple--inject-19" class="animable" style="transform-origin: 241.357px 212.43px;"><path d="M443,234s0-77-44-113a111.8,111.8,0,0,0-74.86-25.06A26,26,0,1,1,275.67,109v-.3A78.91,78.91,0,0,0,266,115c-30,23-50,61-80,65-19.36,2.58-37.1-12-56.7-12.22C103.22,167.52,75.49,178,58,197.72,41.6,216.19,38.56,241.27,40,265c2,33,35.45,64,35.45,64H421S444,301,443,234Z" style="fill: rgb(33, 117, 242); transform-origin: 241.357px 212.43px;" id="elqtppn9izzt" class="animable"></path><g id="el4ut92qtmtwn"><path d="M443,234s0-77-44-113a111.8,111.8,0,0,0-74.86-25.06A26,26,0,1,1,275.67,109v-.3A78.91,78.91,0,0,0,266,115c-30,23-50,61-80,65-19.36,2.58-37.1-12-56.7-12.22C103.22,167.52,75.49,178,58,197.72,41.6,216.19,38.56,241.27,40,265c2,33,35.45,64,35.45,64H421S444,301,443,234Z" style="fill: rgb(255, 255, 255); opacity: 0.5; transform-origin: 241.357px 212.43px;" class="animable"></path></g></g><g id="freepik--Clouds--inject-19" class="animable" style="transform-origin: 237.329px 159.197px;"><path d="M402.34,155.75c-5.67-3.1-8.25-.52-10.31-3.1s5.67-9.28-9.8-16c0,0-1-14.44-22.17-15s-15.47,14.44-21.15,18-7.22-2.06-12.89,1.55-3.09,10.83-7.73,11.86-10.83-4.64-16.51-1-5.67,6.7-8.25,6.7-7.73-2.06-10.83,0-6.7,4.64-6.7,4.64H406.47S408,158.84,402.34,155.75Z" style="fill: rgb(255, 255, 255); transform-origin: 341.329px 142.517px;" id="elrrj9bgkhbv" class="animable"></path><path d="M145.89,192c-3.5-1.91-5.09-.32-6.36-1.91s3.5-5.72-6-9.85c0,0-.63-8.9-13.67-9.22s-9.54,8.9-13,11.13-4.45-1.28-8,1-1.91,6.68-4.77,7.31-6.68-2.86-10.17-.63-3.5,4.13-5.09,4.13-4.77-1.27-6.68,0S68,196.76,68,196.76h80.43S149.39,193.9,145.89,192Z" style="fill: rgb(255, 255, 255); transform-origin: 108.275px 183.886px;" id="el9lmsckvbgtw" class="animable"></path></g><g id="freepik--Crane--inject-19" class="animable" style="transform-origin: 310.37px 219.19px;"><polygon points="239.5 215.19 227.49 298.38 241.88 298.38 254.43 215.19 239.5 215.19" style="fill: rgb(38, 50, 56); stroke: rgb(38, 50, 56); stroke-miterlimit: 10; transform-origin: 240.96px 256.785px;" id="elfbyu7m2bpk7" class="animable"></polygon><polygon points="245.51 215.19 233.5 298.38 242.49 298.38 255.03 215.19 245.51 215.19" style="fill: rgb(255, 255, 255); stroke: rgb(38, 50, 56); stroke-miterlimit: 10; transform-origin: 244.265px 256.785px;" id="elzouk9l3pkvj" class="animable"></polygon><rect x="317.91" y="221.57" width="9.92" height="76.17" style="fill: rgb(255, 255, 255); stroke: rgb(38, 50, 56); stroke-miterlimit: 10; transform-origin: 322.87px 259.655px;" id="elp8n5m8aavcg" class="animable"></rect><rect x="313.85" y="221.57" width="9.92" height="76.17" style="fill: rgb(38, 50, 56); stroke: rgb(38, 50, 56); stroke-miterlimit: 10; transform-origin: 318.81px 259.655px;" id="el9g2wikyifnp" class="animable"></rect><rect x="376.05" y="221.57" width="9.92" height="76.17" style="fill: rgb(255, 255, 255); stroke: rgb(38, 50, 56); stroke-miterlimit: 10; transform-origin: 381.01px 259.655px;" id="elkg2rmc1e1ji" class="animable"></rect><rect x="371.99" y="221.57" width="9.92" height="76.17" style="fill: rgb(38, 50, 56); stroke: rgb(38, 50, 56); stroke-miterlimit: 10; transform-origin: 376.95px 259.655px;" id="elscgkuvue16s" class="animable"></rect><rect x="321.96" y="179.2" width="41.53" height="36.06" style="fill: rgb(38, 50, 56); stroke: rgb(38, 50, 56); stroke-miterlimit: 10; transform-origin: 342.725px 197.23px;" id="elvnppaphy6c" class="animable"></rect><rect x="360.21" y="179.2" width="41.53" height="36.06" style="fill: rgb(255, 255, 255); stroke: rgb(38, 50, 56); stroke-miterlimit: 10; transform-origin: 380.975px 197.23px;" id="el2g2lkzcwswm" class="animable"></rect><rect x="336.86" y="215.19" width="71.65" height="13.14" style="fill: rgb(255, 255, 255); stroke: rgb(38, 50, 56); stroke-miterlimit: 10; transform-origin: 372.685px 221.76px;" id="elxw7geuf63sn" class="animable"></rect><polygon points="259 218.92 294.19 148 302.73 150.13 268.06 219.46 259 218.92" style="fill: rgb(255, 255, 255); stroke: rgb(38, 50, 56); stroke-miterlimit: 10; transform-origin: 280.865px 183.73px;" id="eldto1k1t63i8" class="animable"></polygon><polygon points="253.66 218.92 288.86 148 297.39 150.13 262.73 219.46 253.66 218.92" style="fill: rgb(38, 50, 56); stroke: rgb(38, 50, 56); stroke-miterlimit: 10; transform-origin: 275.525px 183.73px;" id="elwotc2vodnsc" class="animable"></polygon><polygon points="335.79 218.92 300.59 148 288.25 150.13 322.91 219.46 335.79 218.92" style="fill: rgb(38, 50, 56); stroke: rgb(38, 50, 56); stroke-miterlimit: 10; transform-origin: 312.02px 183.73px;" id="el5fb2tl0en1" class="animable"></polygon><polygon points="341.12 218.92 305.93 148 297.39 150.13 332.06 219.46 341.12 218.92" style="fill: rgb(255, 255, 255); stroke: rgb(38, 50, 56); stroke-miterlimit: 10; transform-origin: 319.255px 183.73px;" id="elbl7mrtqf91m" class="animable"></polygon><path d="M227.44,247.44l8.64,8.47A14.18,14.18,0,0,0,257,254.73l9.93-12.23,6.82,9.13a14.17,14.17,0,0,0,22.49.31l7.16-9.06,6,8.07a14.18,14.18,0,0,0,22.62.27l6.75-8.72" style="fill: none; stroke: rgb(38, 50, 56); stroke-miterlimit: 10; transform-origin: 283.105px 251.23px;" id="ell7q7xucch7a" class="animable"></path><polygon points="205.22 250.29 197.81 250.29 188.69 240.98 200.85 240.98 205.22 250.29" style="fill: rgb(38, 50, 56); stroke: rgb(38, 50, 56); stroke-miterlimit: 10; transform-origin: 196.955px 245.635px;" id="elwtslhxl6vd" class="animable"></polygon><polygon points="196.67 241.74 205.22 250.29 230.1 250.29 230.1 241.74 196.67 241.74" style="fill: rgb(255, 255, 255); stroke: rgb(38, 50, 56); stroke-miterlimit: 10; transform-origin: 213.385px 246.015px;" id="elgorzkwbotr8" class="animable"></polygon><rect x="182.21" y="231.72" width="195.71" height="10.67" style="fill: rgb(38, 50, 56); stroke: rgb(38, 50, 56); stroke-miterlimit: 10; transform-origin: 280.065px 237.055px;" id="elp296vyxtlu" class="animable"></rect><rect x="192.34" y="231.72" width="246.19" height="10.67" style="fill: rgb(255, 255, 255); stroke: rgb(38, 50, 56); stroke-miterlimit: 10; transform-origin: 315.435px 237.055px;" id="elexeho881rsw" class="animable"></rect><rect x="270.2" y="215.19" width="76.68" height="10.67" style="fill: rgb(255, 255, 255); stroke: rgb(38, 50, 56); stroke-miterlimit: 10; transform-origin: 308.54px 220.525px;" id="eleo1lsmzxe28" class="animable"></rect><polygon points="335.49 225.86 243.93 225.86 245.51 215.19 336.86 215.19 335.49 225.86" style="fill: rgb(255, 255, 255); stroke: rgb(38, 50, 56); stroke-miterlimit: 10; transform-origin: 290.395px 220.525px;" id="eltopbpucp1ko" class="animable"></polygon><rect x="285.61" y="140" width="27.25" height="13.33" style="fill: rgb(255, 255, 255); stroke: rgb(38, 50, 56); stroke-miterlimit: 10; transform-origin: 299.235px 146.665px;" id="elltpniur0eq" class="animable"></rect><rect x="279.8" y="140" width="24.58" height="13.33" style="fill: rgb(38, 50, 56); stroke: rgb(38, 50, 56); stroke-miterlimit: 10; transform-origin: 292.09px 146.665px;" id="el29oc9972wd2" class="animable"></rect><polygon points="336.86 215.19 324.84 298.38 339.24 298.38 351.79 215.19 336.86 215.19" style="fill: rgb(38, 50, 56); stroke: rgb(38, 50, 56); stroke-miterlimit: 10; transform-origin: 338.315px 256.785px;" id="eli0c7pd2gg6" class="animable"></polygon><polygon points="342.87 215.19 330.85 298.38 339.84 298.38 352.39 215.19 342.87 215.19" style="fill: rgb(255, 255, 255); stroke: rgb(38, 50, 56); stroke-miterlimit: 10; transform-origin: 341.62px 256.785px;" id="elob1p4n12k9s" class="animable"></polygon><rect x="367.49" y="192.27" width="5.41" height="7.66" style="fill: rgb(38, 50, 56); stroke: rgb(38, 50, 56); stroke-miterlimit: 10; transform-origin: 370.195px 196.1px;" id="el5douqbbtf96" class="animable"></rect><rect x="391.82" y="192.27" width="5.41" height="7.66" style="fill: rgb(38, 50, 56); stroke: rgb(38, 50, 56); stroke-miterlimit: 10; transform-origin: 394.525px 196.1px;" id="el55oorapnf5e" class="animable"></rect><polygon points="295.95 140.29 192.34 231.72 184.49 231.72 288.19 140.29 295.95 140.29" style="fill: rgb(38, 50, 56); stroke: rgb(38, 50, 56); stroke-miterlimit: 10; transform-origin: 240.22px 186.005px;" id="el312knfx04d9" class="animable"></polygon><polygon points="300.12 140.29 196.51 231.72 188.66 231.72 292.36 140.29 300.12 140.29" style="fill: rgb(255, 255, 255); stroke: rgb(38, 50, 56); stroke-miterlimit: 10; transform-origin: 244.39px 186.005px;" id="el6fksixhrvj8" class="animable"></polygon></g><g id="freepik--Ship--inject-19" class="animable" style="transform-origin: 254.438px 265.785px;"><path d="M104,230h3.06V207.17a1.53,1.53,0,0,0-1.53-1.53h0a1.53,1.53,0,0,0-1.53,1.53Z" style="fill: rgb(33, 117, 242); stroke: rgb(38, 50, 56); stroke-miterlimit: 10; transform-origin: 105.53px 217.82px;" id="elcd6gf2l06rt" class="animable"></path><path d="M136.47,230h3.07V207.17a1.54,1.54,0,0,0-1.54-1.53h0a1.54,1.54,0,0,0-1.53,1.53Z" style="fill: rgb(33, 117, 242); stroke: rgb(38, 50, 56); stroke-miterlimit: 10; transform-origin: 138.005px 217.82px;" id="elxjsgkt2qg9k" class="animable"></path><path d="M123.08,202.57h1.32a1.53,1.53,0,0,1,1.53,1.53V230a0,0,0,0,1,0,0h-4.38a0,0,0,0,1,0,0V204.1A1.53,1.53,0,0,1,123.08,202.57Z" style="fill: rgb(33, 117, 242); stroke: rgb(38, 50, 56); stroke-miterlimit: 10; transform-origin: 123.74px 216.285px;" id="ellsjrmikje4k" class="animable"></path><polygon points="165.45 229.98 144.57 229.98 98.92 229.98 78.04 229.98 78.04 247.47 98.92 247.47 98.92 275.14 144.57 275.14 144.57 247.47 165.45 247.47 165.45 229.98" style="fill: rgb(38, 50, 56); stroke: rgb(38, 50, 56); stroke-miterlimit: 10; transform-origin: 121.745px 252.56px;" id="elk22lvb56bt" class="animable"></polygon><polygon points="170.51 229.98 149.63 229.98 103.99 229.98 83.11 229.98 83.11 247.47 103.99 247.47 103.99 275.14 149.63 275.14 149.63 247.47 170.51 247.47 170.51 229.98" style="fill: rgb(255, 255, 255); stroke: rgb(38, 50, 56); stroke-miterlimit: 10; transform-origin: 126.81px 252.56px;" id="ela136vmelerd" class="animable"></polygon><rect x="83.11" y="235.33" width="87.41" height="6.8" style="fill: rgb(38, 50, 56); stroke: rgb(38, 50, 56); stroke-miterlimit: 10; transform-origin: 126.815px 238.73px;" id="elc42aqccciiv" class="animable"></rect><path d="M83.11,230V226.2a1.55,1.55,0,0,1,1.55-1.56H169a1.55,1.55,0,0,1,1.55,1.56V230" style="fill: none; stroke: rgb(38, 50, 56); stroke-miterlimit: 10; transform-origin: 126.83px 227.32px;" id="eljiwhrvi2fgp" class="animable"></path><line x1="88.82" y1="230.03" x2="88.82" y2="224.8" style="fill: none; stroke: rgb(38, 50, 56); stroke-miterlimit: 10; transform-origin: 88.82px 227.415px;" id="elmkhmjb7cihh" class="animable"></line><line x1="95.16" y1="230.03" x2="95.16" y2="224.8" style="fill: none; stroke: rgb(38, 50, 56); stroke-miterlimit: 10; transform-origin: 95.16px 227.415px;" id="elz5r6jwto7g" class="animable"></line><line x1="101.5" y1="230.03" x2="101.5" y2="224.8" style="fill: none; stroke: rgb(38, 50, 56); stroke-miterlimit: 10; transform-origin: 101.5px 227.415px;" id="elzjcuehld5lm" class="animable"></line><line x1="107.85" y1="230.03" x2="107.85" y2="224.8" style="fill: none; stroke: rgb(38, 50, 56); stroke-miterlimit: 10; transform-origin: 107.85px 227.415px;" id="elj0eu4j2lxf" class="animable"></line><line x1="114.19" y1="230.03" x2="114.19" y2="224.8" style="fill: none; stroke: rgb(38, 50, 56); stroke-miterlimit: 10; transform-origin: 114.19px 227.415px;" id="eleskfvtt1as" class="animable"></line><line x1="120.53" y1="230.03" x2="120.53" y2="224.8" style="fill: none; stroke: rgb(38, 50, 56); stroke-miterlimit: 10; transform-origin: 120.53px 227.415px;" id="elnnbqnugjga" class="animable"></line><line x1="126.87" y1="230.03" x2="126.87" y2="224.8" style="fill: none; stroke: rgb(38, 50, 56); stroke-miterlimit: 10; transform-origin: 126.87px 227.415px;" id="elvy8rdblc0y" class="animable"></line><line x1="133.21" y1="230.03" x2="133.21" y2="224.8" style="fill: none; stroke: rgb(38, 50, 56); stroke-miterlimit: 10; transform-origin: 133.21px 227.415px;" id="el44rewzrzgau" class="animable"></line><line x1="139.55" y1="230.03" x2="139.55" y2="224.8" style="fill: none; stroke: rgb(38, 50, 56); stroke-miterlimit: 10; transform-origin: 139.55px 227.415px;" id="elqittcns4pq" class="animable"></line><line x1="145.89" y1="230.03" x2="145.89" y2="224.8" style="fill: none; stroke: rgb(38, 50, 56); stroke-miterlimit: 10; transform-origin: 145.89px 227.415px;" id="elxh0xova9re" class="animable"></line><line x1="152.23" y1="230.03" x2="152.23" y2="224.8" style="fill: none; stroke: rgb(38, 50, 56); stroke-miterlimit: 10; transform-origin: 152.23px 227.415px;" id="elvt0apkanz78" class="animable"></line><line x1="158.57" y1="230.03" x2="158.57" y2="224.8" style="fill: none; stroke: rgb(38, 50, 56); stroke-miterlimit: 10; transform-origin: 158.57px 227.415px;" id="elonmtenta0e" class="animable"></line><line x1="164.92" y1="230.03" x2="164.92" y2="224.8" style="fill: none; stroke: rgb(38, 50, 56); stroke-miterlimit: 10; transform-origin: 164.92px 227.415px;" id="elg3nly5eorri" class="animable"></line><rect x="108.81" y="248.22" width="2.19" height="4.83" style="fill: rgb(38, 50, 56); transform-origin: 109.905px 250.635px;" id="elox9atyvduqh" class="animable"></rect><rect x="113.86" y="248.22" width="2.19" height="4.83" style="fill: rgb(38, 50, 56); transform-origin: 114.955px 250.635px;" id="eltsiaj0zwpir" class="animable"></rect><rect x="108.81" y="262.03" width="2.19" height="4.83" style="fill: rgb(38, 50, 56); transform-origin: 109.905px 264.445px;" id="elk97khw9zm3" class="animable"></rect><rect x="113.86" y="262.03" width="2.19" height="4.83" style="fill: rgb(38, 50, 56); transform-origin: 114.955px 264.445px;" id="elw1cced79w3" class="animable"></rect><rect x="129.23" y="262.03" width="2.19" height="4.83" style="fill: rgb(38, 50, 56); transform-origin: 130.325px 264.445px;" id="elgwc6u2csxw" class="animable"></rect><rect x="134.28" y="262.03" width="2.19" height="4.83" style="fill: rgb(38, 50, 56); transform-origin: 135.375px 264.445px;" id="elwyonhzgs0p" class="animable"></rect><rect x="131.42" y="248.22" width="2.19" height="4.83" style="fill: rgb(38, 50, 56); transform-origin: 132.515px 250.635px;" id="ellgdm0k149g" class="animable"></rect><rect x="87.26" y="302.22" width="24.18" height="15.8" style="fill: rgb(255, 255, 255); stroke: rgb(38, 50, 56); stroke-miterlimit: 10; transform-origin: 99.35px 310.12px;" id="eld9j2njbomd" class="animable"></rect><rect x="75.01" y="302.22" width="24.18" height="15.8" style="fill: rgb(33, 117, 242); stroke: rgb(38, 50, 56); stroke-miterlimit: 10; transform-origin: 87.1px 310.12px;" id="elxwh892dmv9" class="animable"></rect><rect x="87.26" y="286.41" width="24.18" height="15.8" style="fill: rgb(255, 255, 255); stroke: rgb(38, 50, 56); stroke-miterlimit: 10; transform-origin: 99.35px 294.31px;" id="elplah3j36dh" class="animable"></rect><rect x="75.01" y="286.41" width="24.18" height="15.8" style="fill: rgb(38, 50, 56); stroke: rgb(38, 50, 56); stroke-miterlimit: 10; transform-origin: 87.1px 294.31px;" id="el7z8br1mox1y" class="animable"></rect><rect x="87.26" y="270.61" width="24.18" height="15.8" style="fill: rgb(255, 255, 255); stroke: rgb(38, 50, 56); stroke-miterlimit: 10; transform-origin: 99.35px 278.51px;" id="elx7fsa6397fo" class="animable"></rect><rect x="75.01" y="270.61" width="24.18" height="15.8" style="fill: rgb(33, 117, 242); stroke: rgb(38, 50, 56); stroke-miterlimit: 10; transform-origin: 87.1px 278.51px;" id="el4elgzfg0p9i" class="animable"></rect><rect x="290.14" y="254.44" width="39.91" height="19.68" style="fill: rgb(255, 255, 255); stroke: rgb(38, 50, 56); stroke-miterlimit: 10; transform-origin: 310.095px 264.28px;" id="el9x130u2wttg" class="animable"></rect><rect x="269.91" y="254.44" width="39.91" height="19.68" style="fill: rgb(38, 50, 56); stroke: rgb(38, 50, 56); stroke-miterlimit: 10; transform-origin: 289.865px 264.28px;" id="elmvo9zg2mgs" class="animable"></rect><path d="M321,259v-3.79a1.75,1.75,0,0,1,1.89-1.56H425.61a1.75,1.75,0,0,1,1.89,1.56V259" style="fill: none; stroke: rgb(38, 50, 56); stroke-miterlimit: 10; transform-origin: 374.25px 256.322px;" id="eltgsmmwxhwmk" class="animable"></path><line x1="327.99" y1="259.01" x2="327.99" y2="253.77" style="fill: none; stroke: rgb(38, 50, 56); stroke-miterlimit: 10; transform-origin: 327.99px 256.39px;" id="elci8453f68up" class="animable"></line><line x1="335.72" y1="259.01" x2="335.72" y2="253.77" style="fill: none; stroke: rgb(38, 50, 56); stroke-miterlimit: 10; transform-origin: 335.72px 256.39px;" id="elrvpqtjpb41" class="animable"></line><line x1="343.44" y1="259.01" x2="343.44" y2="253.77" style="fill: none; stroke: rgb(38, 50, 56); stroke-miterlimit: 10; transform-origin: 343.44px 256.39px;" id="elx6c6hmw69uq" class="animable"></line><line x1="351.17" y1="259.01" x2="351.17" y2="253.77" style="fill: none; stroke: rgb(38, 50, 56); stroke-miterlimit: 10; transform-origin: 351.17px 256.39px;" id="elekpouh931j6" class="animable"></line><line x1="358.89" y1="259.01" x2="358.89" y2="253.77" style="fill: none; stroke: rgb(38, 50, 56); stroke-miterlimit: 10; transform-origin: 358.89px 256.39px;" id="eln151m4sume" class="animable"></line><line x1="366.61" y1="259.01" x2="366.61" y2="253.77" style="fill: none; stroke: rgb(38, 50, 56); stroke-miterlimit: 10; transform-origin: 366.61px 256.39px;" id="elzpajzsvc1z8" class="animable"></line><line x1="374.34" y1="259.01" x2="374.34" y2="253.77" style="fill: none; stroke: rgb(38, 50, 56); stroke-miterlimit: 10; transform-origin: 374.34px 256.39px;" id="elzr8v4o26s28" class="animable"></line><line x1="382.06" y1="259.01" x2="382.06" y2="253.77" style="fill: none; stroke: rgb(38, 50, 56); stroke-miterlimit: 10; transform-origin: 382.06px 256.39px;" id="elm8ro11u3mke" class="animable"></line><line x1="389.79" y1="259.01" x2="389.79" y2="253.77" style="fill: none; stroke: rgb(38, 50, 56); stroke-miterlimit: 10; transform-origin: 389.79px 256.39px;" id="elh7koo4h1kyd" class="animable"></line><line x1="397.51" y1="259.01" x2="397.51" y2="253.77" style="fill: none; stroke: rgb(38, 50, 56); stroke-miterlimit: 10; transform-origin: 397.51px 256.39px;" id="el28z7yafus0t" class="animable"></line><line x1="405.24" y1="259.01" x2="405.24" y2="253.77" style="fill: none; stroke: rgb(38, 50, 56); stroke-miterlimit: 10; transform-origin: 405.24px 256.39px;" id="el2x07rkwb7w2" class="animable"></line><line x1="412.96" y1="259.01" x2="412.96" y2="253.77" style="fill: none; stroke: rgb(38, 50, 56); stroke-miterlimit: 10; transform-origin: 412.96px 256.39px;" id="el3hxd9uskrtf" class="animable"></line><line x1="420.68" y1="259.01" x2="420.68" y2="253.77" style="fill: none; stroke: rgb(38, 50, 56); stroke-miterlimit: 10; transform-origin: 420.68px 256.39px;" id="elbo1t2mwp6yc" class="animable"></line><rect x="118.47" y="305.73" width="32.05" height="15.8" style="fill: rgb(255, 255, 255); stroke: rgb(38, 50, 56); stroke-miterlimit: 10; transform-origin: 134.495px 313.63px;" id="elq954bumxpi8" class="animable"></rect><rect x="102.22" y="305.73" width="32.05" height="15.8" style="fill: rgb(255, 255, 255); stroke: rgb(38, 50, 56); stroke-miterlimit: 10; transform-origin: 118.245px 313.63px;" id="el5ot0bjjui9t" class="animable"></rect><rect x="118.47" y="289.93" width="32.05" height="15.8" style="fill: rgb(255, 255, 255); stroke: rgb(38, 50, 56); stroke-miterlimit: 10; transform-origin: 134.495px 297.83px;" id="ely53gh9lyf4c" class="animable"></rect><rect x="102.22" y="289.93" width="32.05" height="15.8" style="fill: rgb(33, 117, 242); stroke: rgb(38, 50, 56); stroke-miterlimit: 10; transform-origin: 118.245px 297.83px;" id="ely0kmmklsd7c" class="animable"></rect><rect x="118.47" y="274.12" width="32.05" height="15.8" style="fill: rgb(255, 255, 255); stroke: rgb(38, 50, 56); stroke-miterlimit: 10; transform-origin: 134.495px 282.02px;" id="elow5zagoqjka" class="animable"></rect><rect x="102.22" y="274.12" width="32.05" height="15.8" style="fill: rgb(38, 50, 56); stroke: rgb(38, 50, 56); stroke-miterlimit: 10; transform-origin: 118.245px 282.02px;" id="ely6jqo1swrx" class="animable"></rect><rect x="181.12" y="262.71" width="21.41" height="12.29" style="fill: rgb(255, 255, 255); stroke: rgb(38, 50, 56); stroke-miterlimit: 10; transform-origin: 191.825px 268.855px;" id="ellqo47x609t" class="animable"></rect><rect x="170.26" y="262.71" width="21.41" height="12.29" style="fill: rgb(38, 50, 56); stroke: rgb(38, 50, 56); stroke-miterlimit: 10; transform-origin: 180.965px 268.855px;" id="el3rg7hc0v78w" class="animable"></rect><rect x="165.75" y="262.71" width="21.41" height="12.29" style="fill: rgb(255, 255, 255); stroke: rgb(38, 50, 56); stroke-miterlimit: 10; transform-origin: 176.455px 268.855px;" id="elbgz6f9zioop" class="animable"></rect><rect x="154.9" y="262.71" width="21.41" height="12.29" style="fill: rgb(33, 117, 242); stroke: rgb(38, 50, 56); stroke-miterlimit: 10; transform-origin: 165.605px 268.855px;" id="el0u6lzcag0r8d" class="animable"></rect><rect x="197.04" y="274.12" width="32.05" height="15.8" style="fill: rgb(255, 255, 255); stroke: rgb(38, 50, 56); stroke-miterlimit: 10; transform-origin: 213.065px 282.02px;" id="el0fznubf7rif" class="animable"></rect><rect x="180.8" y="274.12" width="32.05" height="15.8" style="fill: rgb(33, 117, 242); stroke: rgb(38, 50, 56); stroke-miterlimit: 10; transform-origin: 196.825px 282.02px;" id="el222sors59i4" class="animable"></rect><rect x="157.1" y="305.73" width="32.05" height="15.8" style="fill: rgb(255, 255, 255); stroke: rgb(38, 50, 56); stroke-miterlimit: 10; transform-origin: 173.125px 313.63px;" id="el5r2epdfxxn" class="animable"></rect><rect x="140.85" y="305.73" width="32.05" height="15.8" style="fill: rgb(33, 117, 242); stroke: rgb(38, 50, 56); stroke-miterlimit: 10; transform-origin: 156.875px 313.63px;" id="elc7nexqz3pqj" class="animable"></rect><rect x="157.1" y="289.93" width="32.05" height="15.8" style="fill: rgb(255, 255, 255); stroke: rgb(38, 50, 56); stroke-miterlimit: 10; transform-origin: 173.125px 297.83px;" id="elggheux8zz6d" class="animable"></rect><rect x="140.85" y="289.93" width="32.05" height="15.8" style="fill: rgb(38, 50, 56); stroke: rgb(38, 50, 56); stroke-miterlimit: 10; transform-origin: 156.875px 297.83px;" id="elheimv86z5q" class="animable"></rect><rect x="197.04" y="305.73" width="32.05" height="15.8" style="fill: rgb(255, 255, 255); stroke: rgb(38, 50, 56); stroke-miterlimit: 10; transform-origin: 213.065px 313.63px;" id="elk1fu1ry0i9d" class="animable"></rect><rect x="180.8" y="305.73" width="32.05" height="15.8" style="fill: rgb(33, 117, 242); stroke: rgb(38, 50, 56); stroke-miterlimit: 10; transform-origin: 196.825px 313.63px;" id="elk7dtxmpm6lq" class="animable"></rect><rect x="197.04" y="289.93" width="32.05" height="15.8" style="fill: rgb(255, 255, 255); stroke: rgb(38, 50, 56); stroke-miterlimit: 10; transform-origin: 213.065px 297.83px;" id="elnq4mu4dvvp" class="animable"></rect><rect x="180.8" y="289.93" width="32.05" height="15.8" style="fill: rgb(33, 117, 242); stroke: rgb(38, 50, 56); stroke-miterlimit: 10; transform-origin: 196.825px 297.83px;" id="el72969ncn8ow" class="animable"></rect><rect x="157.1" y="274.12" width="32.05" height="15.8" style="fill: rgb(255, 255, 255); stroke: rgb(38, 50, 56); stroke-miterlimit: 10; transform-origin: 173.125px 282.02px;" id="elvzv77l6fs6e" class="animable"></rect><rect x="140.85" y="274.12" width="32.05" height="15.8" style="fill: rgb(38, 50, 56); stroke: rgb(38, 50, 56); stroke-miterlimit: 10; transform-origin: 156.875px 282.02px;" id="elvoostczjst" class="animable"></rect><rect x="237.87" y="305.73" width="32.05" height="15.8" style="fill: rgb(255, 255, 255); stroke: rgb(38, 50, 56); stroke-miterlimit: 10; transform-origin: 253.895px 313.63px;" id="elf9glg5ujc8e" class="animable"></rect><rect x="221.62" y="305.73" width="32.04" height="15.8" style="fill: rgb(38, 50, 56); stroke: rgb(38, 50, 56); stroke-miterlimit: 10; transform-origin: 237.64px 313.63px;" id="el3r02gcxaj6i" class="animable"></rect><rect x="237.87" y="289.93" width="32.05" height="15.8" style="fill: rgb(255, 255, 255); stroke: rgb(38, 50, 56); stroke-miterlimit: 10; transform-origin: 253.895px 297.83px;" id="elo0fi4vhqgr9" class="animable"></rect><rect x="221.62" y="289.93" width="32.04" height="15.8" style="fill: rgb(38, 50, 56); stroke: rgb(38, 50, 56); stroke-miterlimit: 10; transform-origin: 237.64px 297.83px;" id="elxner85milcp" class="animable"></rect><rect x="237.87" y="274.12" width="32.05" height="15.8" style="fill: rgb(255, 255, 255); stroke: rgb(38, 50, 56); stroke-miterlimit: 10; transform-origin: 253.895px 282.02px;" id="elfma3c1fp4y8" class="animable"></rect><rect x="221.62" y="274.12" width="32.04" height="15.8" style="fill: rgb(33, 117, 242); stroke: rgb(38, 50, 56); stroke-miterlimit: 10; transform-origin: 237.64px 282.02px;" id="elwg43jn2351k" class="animable"></rect><rect x="279.13" y="305.73" width="32.05" height="15.8" style="fill: rgb(255, 255, 255); stroke: rgb(38, 50, 56); stroke-miterlimit: 10; transform-origin: 295.155px 313.63px;" id="eljetshylhu7p" class="animable"></rect><rect x="262.89" y="305.73" width="32.05" height="15.8" style="fill: rgb(255, 255, 255); stroke: rgb(38, 50, 56); stroke-miterlimit: 10; transform-origin: 278.915px 313.63px;" id="elkwjpew51c6" class="animable"></rect><rect x="279.13" y="289.93" width="32.05" height="15.8" style="fill: rgb(33, 117, 242); stroke: rgb(38, 50, 56); stroke-miterlimit: 10; transform-origin: 295.155px 297.83px;" id="ellptz4pf1q" class="animable"></rect><rect x="262.89" y="289.93" width="32.05" height="15.8" style="fill: rgb(33, 117, 242); stroke: rgb(38, 50, 56); stroke-miterlimit: 10; transform-origin: 278.915px 297.83px;" id="ellcvvvssft6g" class="animable"></rect><rect x="279.13" y="274.12" width="32.05" height="15.8" style="fill: rgb(33, 117, 242); stroke: rgb(38, 50, 56); stroke-miterlimit: 10; transform-origin: 295.155px 282.02px;" id="elysvd21k53i" class="animable"></rect><rect x="262.89" y="274.12" width="32.05" height="15.8" style="fill: rgb(38, 50, 56); stroke: rgb(38, 50, 56); stroke-miterlimit: 10; transform-origin: 278.915px 282.02px;" id="elzy8p5jrvqjj" class="animable"></rect><polygon points="311.18 275 321.27 259.2 427.5 259.2 436.28 277.19 310.3 277.19 311.18 275" style="fill: rgb(33, 117, 242); stroke: rgb(38, 50, 56); stroke-miterlimit: 10; transform-origin: 373.29px 268.195px;" id="elk04tcfk4p4n" class="animable"></polygon><polygon points="109.03 320.32 105.41 320.32 105.77 307.48 108.67 307.48 109.03 320.32" style="fill: rgb(255, 255, 255); stroke: rgb(38, 50, 56); stroke-miterlimit: 10; transform-origin: 107.22px 313.9px;" id="elk942cacg00c" class="animable"></polygon><polygon points="125.82 320.32 122.2 320.32 122.56 307.48 125.46 307.48 125.82 320.32" style="fill: rgb(255, 255, 255); stroke: rgb(38, 50, 56); stroke-miterlimit: 10; transform-origin: 124.01px 313.9px;" id="eliuvineznokc" class="animable"></polygon><polygon points="142.61 320.32 138.99 320.32 139.35 307.48 142.25 307.48 142.61 320.32" style="fill: rgb(255, 255, 255); stroke: rgb(38, 50, 56); stroke-miterlimit: 10; transform-origin: 140.8px 313.9px;" id="elgshz38jkqcm" class="animable"></polygon><polygon points="159.4 320.32 155.78 320.32 156.14 307.48 159.04 307.48 159.4 320.32" style="fill: rgb(255, 255, 255); stroke: rgb(38, 50, 56); stroke-miterlimit: 10; transform-origin: 157.59px 313.9px;" id="ele0uautk3j05" class="animable"></polygon><polygon points="176.19 320.32 172.57 320.32 172.93 307.48 175.83 307.48 176.19 320.32" style="fill: rgb(255, 255, 255); stroke: rgb(38, 50, 56); stroke-miterlimit: 10; transform-origin: 174.38px 313.9px;" id="el09l286ladzrl" class="animable"></polygon><polygon points="192.98 320.32 189.36 320.32 189.72 307.48 192.62 307.48 192.98 320.32" style="fill: rgb(255, 255, 255); stroke: rgb(38, 50, 56); stroke-miterlimit: 10; transform-origin: 191.17px 313.9px;" id="eligefjsfqcj" class="animable"></polygon><polygon points="209.77 320.32 206.15 320.32 206.51 307.48 209.41 307.48 209.77 320.32" style="fill: rgb(255, 255, 255); stroke: rgb(38, 50, 56); stroke-miterlimit: 10; transform-origin: 207.96px 313.9px;" id="elu2xomj7ibrl" class="animable"></polygon><polygon points="226.56 320.32 222.94 320.32 223.3 307.48 226.2 307.48 226.56 320.32" style="fill: rgb(255, 255, 255); stroke: rgb(38, 50, 56); stroke-miterlimit: 10; transform-origin: 224.75px 313.9px;" id="el98rwg0r33kg" class="animable"></polygon><polygon points="243.35 320.32 239.73 320.32 240.09 307.48 242.99 307.48 243.35 320.32" style="fill: rgb(255, 255, 255); stroke: rgb(38, 50, 56); stroke-miterlimit: 10; transform-origin: 241.54px 313.9px;" id="el7xriuemi9rx" class="animable"></polygon><path d="M442,275H311.18L294,296.51H262.45L258.15,318H241.81l-.3-10.54h-2.9L238.32,318H225l-.3-10.54h-2.9l-.3,10.54H208.23l-.3-10.54H205l-.3,10.54h-13.3l-.29-10.54h-2.9l-.3,10.54h-13.3l-.29-10.54h-2.9l-.3,10.54h-13.3l-.29-10.54h-2.9l-.3,10.54h-13.3l-.29-10.54h-2.9l-.3,10.54h-13.3l-.3-10.54h-2.89l-.3,10.54h-13.3l-.3-10.54h-2.89L104,318H93V296.07H66.67v15.62a18,18,0,0,0,4,11.27l4.83,6H404.24l2.81-4c3.78-5.25,10.78-14.42,17.38-20.12C434.09,296.51,443.75,281.58,442,275Z" style="fill: rgb(38, 50, 56); stroke: rgb(38, 50, 56); stroke-miterlimit: 10; transform-origin: 254.438px 301.98px;" id="elzhrh1p2b89d" class="animable"></path><path d="M424.43,304.85c9.66-8.34,19.32-23.27,17.56-29.85H420.06c-2.82,7.05-6.62,15.75-11.43,25-11.86,22.83-4.39,29-4.39,29l2.81-4C410.83,319.72,417.83,310.55,424.43,304.85Z" style="fill: rgb(255, 255, 255); stroke: rgb(38, 50, 56); stroke-miterlimit: 10; transform-origin: 422.059px 302px;" id="elflrp35om0js" class="animable"></path></g><g id="freepik--Sea--inject-19" class="animable" style="transform-origin: 243.49px 351.26px;"><line x1="425.12" y1="336.19" x2="434.91" y2="336.19" style="fill: none; stroke: rgb(38, 50, 56); stroke-miterlimit: 10; transform-origin: 430.015px 336.19px;" id="elpwxgq161nmi" class="animable"></line><line x1="319.61" y1="336.19" x2="413.81" y2="336.19" style="fill: none; stroke: rgb(38, 50, 56); stroke-miterlimit: 10; transform-origin: 366.71px 336.19px;" id="ela38jv9c43l" class="animable"></line><line x1="287.2" y1="336.19" x2="310.56" y2="336.19" style="fill: none; stroke: rgb(38, 50, 56); stroke-miterlimit: 10; transform-origin: 298.88px 336.19px;" id="elfmsc5ku0nmp" class="animable"></line><line x1="205.05" y1="336.19" x2="276.65" y2="336.19" style="fill: none; stroke: rgb(38, 50, 56); stroke-miterlimit: 10; transform-origin: 240.85px 336.19px;" id="elnexquue1ql" class="animable"></line><line x1="88.99" y1="336.19" x2="194.5" y2="336.19" style="fill: none; stroke: rgb(38, 50, 56); stroke-miterlimit: 10; transform-origin: 141.745px 336.19px;" id="elucg838jjzab" class="animable"></line><line x1="56.59" y1="336.19" x2="77.69" y2="336.19" style="fill: none; stroke: rgb(38, 50, 56); stroke-miterlimit: 10; transform-origin: 67.14px 336.19px;" id="eleb2c3ncwv9f" class="animable"></line><line x1="420.59" y1="355.03" x2="430.39" y2="355.03" style="fill: none; stroke: rgb(38, 50, 56); stroke-miterlimit: 10; transform-origin: 425.49px 355.03px;" id="eleluu85krvgh" class="animable"></line><line x1="315.09" y1="355.03" x2="409.29" y2="355.03" style="fill: none; stroke: rgb(38, 50, 56); stroke-miterlimit: 10; transform-origin: 362.19px 355.03px;" id="elxdzprthjsy" class="animable"></line><line x1="282.68" y1="355.03" x2="306.04" y2="355.03" style="fill: none; stroke: rgb(38, 50, 56); stroke-miterlimit: 10; transform-origin: 294.36px 355.03px;" id="elcp2pvt27m9g" class="animable"></line><line x1="200.53" y1="355.03" x2="272.13" y2="355.03" style="fill: none; stroke: rgb(38, 50, 56); stroke-miterlimit: 10; transform-origin: 236.33px 355.03px;" id="elfg7tly5ctx" class="animable"></line><line x1="84.47" y1="355.03" x2="189.98" y2="355.03" style="fill: none; stroke: rgb(38, 50, 56); stroke-miterlimit: 10; transform-origin: 137.225px 355.03px;" id="elw15pdc0stjs" class="animable"></line><line x1="52.07" y1="355.03" x2="73.17" y2="355.03" style="fill: none; stroke: rgb(38, 50, 56); stroke-miterlimit: 10; transform-origin: 62.62px 355.03px;" id="el0yaq1h7m12rn" class="animable"></line><line x1="115.85" y1="370.1" x2="108.59" y2="370.1" style="fill: none; stroke: rgb(38, 50, 56); stroke-miterlimit: 10; transform-origin: 112.22px 370.1px;" id="elul6e9pw3958" class="animable"></line><line x1="194.04" y1="370.1" x2="124.23" y2="370.1" style="fill: none; stroke: rgb(38, 50, 56); stroke-miterlimit: 10; transform-origin: 159.135px 370.1px;" id="eli8tike5lini" class="animable"></line><line x1="218.05" y1="370.1" x2="200.74" y2="370.1" style="fill: none; stroke: rgb(38, 50, 56); stroke-miterlimit: 10; transform-origin: 209.395px 370.1px;" id="el3yxckm606ll" class="animable"></line><line x1="278.92" y1="370.1" x2="225.87" y2="370.1" style="fill: none; stroke: rgb(38, 50, 56); stroke-miterlimit: 10; transform-origin: 252.395px 370.1px;" id="el823s6lx0jf" class="animable"></line><line x1="364.93" y1="370.1" x2="286.74" y2="370.1" style="fill: none; stroke: rgb(38, 50, 56); stroke-miterlimit: 10; transform-origin: 325.835px 370.1px;" id="elr7jdeaacg8" class="animable"></line><line x1="388.94" y1="370.1" x2="373.3" y2="370.1" style="fill: none; stroke: rgb(38, 50, 56); stroke-miterlimit: 10; transform-origin: 381.12px 370.1px;" id="elv219aisdph" class="animable"></line><line x1="90.68" y1="345.23" x2="82.21" y2="345.23" style="fill: none; stroke: rgb(38, 50, 56); stroke-miterlimit: 10; transform-origin: 86.445px 345.23px;" id="elw09zijpsxbr" class="animable"></line><line x1="181.9" y1="345.23" x2="100.46" y2="345.23" style="fill: none; stroke: rgb(38, 50, 56); stroke-miterlimit: 10; transform-origin: 141.18px 345.23px;" id="el1llhmqty8r1" class="animable"></line><line x1="209.92" y1="345.23" x2="189.72" y2="345.23" style="fill: none; stroke: rgb(38, 50, 56); stroke-miterlimit: 10; transform-origin: 199.82px 345.23px;" id="elis243l9lqmj" class="animable"></line><line x1="280.93" y1="345.23" x2="219.04" y2="345.23" style="fill: none; stroke: rgb(38, 50, 56); stroke-miterlimit: 10; transform-origin: 249.985px 345.23px;" id="ely6r64lamgq" class="animable"></line><line x1="381.27" y1="345.23" x2="290.06" y2="345.23" style="fill: none; stroke: rgb(38, 50, 56); stroke-miterlimit: 10; transform-origin: 335.665px 345.23px;" id="elz38h0ob6ub" class="animable"></line><line x1="409.29" y1="345.23" x2="391.05" y2="345.23" style="fill: none; stroke: rgb(38, 50, 56); stroke-miterlimit: 10; transform-origin: 400.17px 345.23px;" id="elps6navj58rn" class="animable"></line><line x1="74.1" y1="340.71" x2="65.63" y2="340.71" style="fill: none; stroke: rgb(38, 50, 56); stroke-miterlimit: 10; transform-origin: 69.865px 340.71px;" id="eldx7rh65shwt" class="animable"></line><line x1="165.32" y1="340.71" x2="83.88" y2="340.71" style="fill: none; stroke: rgb(38, 50, 56); stroke-miterlimit: 10; transform-origin: 124.6px 340.71px;" id="elclcc6agy8h" class="animable"></line><line x1="193.34" y1="340.71" x2="173.14" y2="340.71" style="fill: none; stroke: rgb(38, 50, 56); stroke-miterlimit: 10; transform-origin: 183.24px 340.71px;" id="elwxw90qwru6m" class="animable"></line><line x1="264.35" y1="340.71" x2="202.46" y2="340.71" style="fill: none; stroke: rgb(38, 50, 56); stroke-miterlimit: 10; transform-origin: 233.405px 340.71px;" id="el811ttlktv1g" class="animable"></line><line x1="364.69" y1="340.71" x2="273.48" y2="340.71" style="fill: none; stroke: rgb(38, 50, 56); stroke-miterlimit: 10; transform-origin: 319.085px 340.71px;" id="elfmohtzufdd9" class="animable"></line><line x1="392.71" y1="340.71" x2="374.47" y2="340.71" style="fill: none; stroke: rgb(38, 50, 56); stroke-miterlimit: 10; transform-origin: 383.59px 340.71px;" id="elyywib6middo" class="animable"></line><line x1="83.15" y1="332.42" x2="74.68" y2="332.42" style="fill: none; stroke: rgb(38, 50, 56); stroke-miterlimit: 10; transform-origin: 78.915px 332.42px;" id="elvvqqdnul50q" class="animable"></line><line x1="174.36" y1="332.42" x2="92.92" y2="332.42" style="fill: none; stroke: rgb(38, 50, 56); stroke-miterlimit: 10; transform-origin: 133.64px 332.42px;" id="ele4uxwvma0u7" class="animable"></line><line x1="202.38" y1="332.42" x2="182.18" y2="332.42" style="fill: none; stroke: rgb(38, 50, 56); stroke-miterlimit: 10; transform-origin: 192.28px 332.42px;" id="elhuhk4xkzqxr" class="animable"></line><line x1="273.4" y1="332.42" x2="211.5" y2="332.42" style="fill: none; stroke: rgb(38, 50, 56); stroke-miterlimit: 10; transform-origin: 242.45px 332.42px;" id="ell6q6er9pa9" class="animable"></line><line x1="373.74" y1="332.42" x2="282.52" y2="332.42" style="fill: none; stroke: rgb(38, 50, 56); stroke-miterlimit: 10; transform-origin: 328.13px 332.42px;" id="elzds2ja1ffhj" class="animable"></line><line x1="401.75" y1="332.42" x2="383.51" y2="332.42" style="fill: none; stroke: rgb(38, 50, 56); stroke-miterlimit: 10; transform-origin: 392.63px 332.42px;" id="elzlxvyni6x9" class="animable"></line></g><defs>     <filter id="active" height="200%">         <feMorphology in="SourceAlpha" result="DILATED" operator="dilate" radius="2"></feMorphology>                <feFlood flood-color="#32DFEC" flood-opacity="1" result="PINK"></feFlood>        <feComposite in="PINK" in2="DILATED" operator="in" result="OUTLINE"></feComposite>        <feMerge>            <feMergeNode in="OUTLINE"></feMergeNode>            <feMergeNode in="SourceGraphic"></feMergeNode>        </feMerge>    </filter>    <filter id="hover" height="200%">        <feMorphology in="SourceAlpha" result="DILATED" operator="dilate" radius="2"></feMorphology>                <feFlood flood-color="#ff0000" flood-opacity="0.5" result="PINK"></feFlood>        <feComposite in="PINK" in2="DILATED" operator="in" result="OUTLINE"></feComposite>        <feMerge>            <feMergeNode in="OUTLINE"></feMergeNode>            <feMergeNode in="SourceGraphic"></feMergeNode>        </feMerge>            <feColorMatrix type="matrix" values="0   0   0   0   0                0   1   0   0   0                0   0   0   0   0                0   0   0   1   0 "></feColorMatrix>    </filter></defs></svg>