<svg id="Capa_1" data-name="Capa 1" xmlns="http://www.w3.org/2000/svg" viewBox="0 0 64 64"><defs><style>.cls-1{fill:#5387cc;}</style></defs><title>conecty-icono-mail</title><polygon class="cls-1" points="14.93 24.3 14.93 39.94 23.78 32.86 14.93 24.3"/><path class="cls-1" d="M36.45,30.57,46,21.33H18l9.55,9.23A6.4,6.4,0,0,0,36.45,30.57Z"/><path class="cls-1" d="M36.77,35.51a10.69,10.69,0,0,1-9.54,0,2.14,2.14,0,0,1-.3.29l-8.58,6.87h27.3L37.07,35.8A2.14,2.14,0,0,1,36.77,35.51Z"/><polygon class="cls-1" points="49.07 39.94 49.07 24.3 40.22 32.86 49.07 39.94"/><path class="cls-1" d="M32,0A32,32,0,1,0,64,32,32,32,0,0,0,32,0ZM53.33,40.53a6.4,6.4,0,0,1-6.4,6.4H17.07a6.4,6.4,0,0,1-6.4-6.4V23.47a6.4,6.4,0,0,1,6.4-6.4H46.93a6.4,6.4,0,0,1,6.4,6.4Z"/></svg>