<svg width="292" height="66" viewBox="0 0 292 66" fill="none" xmlns="http://www.w3.org/2000/svg">
<path d="M0.807154 56.3108C0.764124 56.8614 1.17559 57.3427 1.7262 57.3857L10.6988 58.0869C11.2494 58.13 11.7307 57.7185 11.7737 57.1679C11.8167 56.6173 11.4053 56.136 10.8547 56.093L2.87899 55.4697L3.5023 47.494C3.54533 46.9434 3.13386 46.4622 2.58325 46.4191C2.03265 46.3761 1.55141 46.7876 1.50838 47.3382L0.807154 56.3108ZM291.384 21.8245C291.379 21.2723 290.928 20.8281 290.376 20.8325L281.376 20.9041C280.824 20.9085 280.38 21.3598 280.384 21.912C280.388 22.4643 280.84 22.9084 281.392 22.904L289.392 22.8404L289.455 30.8402C289.46 31.3924 289.911 31.8366 290.463 31.8322C291.015 31.8278 291.46 31.3765 291.455 30.8243L291.384 21.8245ZM2.45398 57.1488C50.1574 16.3611 83.189 2.76822 108.018 2.85783C132.797 2.94725 149.674 16.661 165.137 31.3224C172.837 38.6228 180.23 46.2013 188.002 52.288C195.793 58.3901 204.064 63.079 213.608 64.5804C232.739 67.5899 256.454 57.7322 291.096 22.534L289.671 21.131C255.106 56.2498 232.024 65.4529 213.919 62.6047C204.844 61.1771 196.888 56.7075 189.235 50.7135C181.563 44.7043 174.296 37.2493 166.514 29.871C151.013 15.1749 133.637 0.950265 108.026 0.857839C82.4642 0.765595 48.9671 14.7474 1.15425 55.6287L2.45398 57.1488Z" fill="white"/>
</svg>
