<svg width="152" height="153" viewBox="0 0 152 153" fill="none" xmlns="http://www.w3.org/2000/svg">
<path d="M0.411791 143.51C-0.0348087 143.835 -0.133457 144.46 0.191455 144.907L5.48618 152.185C5.8111 152.631 6.43653 152.73 6.88313 152.405C7.32973 152.08 7.42838 151.455 7.10347 151.008L2.39704 144.539L8.86616 139.833C9.31276 139.508 9.41141 138.882 9.0865 138.436C8.76159 137.989 8.13615 137.89 7.68955 138.215L0.411791 143.51ZM150.334 14.8895C150.884 14.8355 151.285 14.3462 151.231 13.7965L150.352 4.83965C150.298 4.29001 149.808 3.88821 149.259 3.94221C148.709 3.9962 148.307 4.48554 148.361 5.03518L149.143 12.9969L141.182 13.779C140.632 13.833 140.23 14.3223 140.284 14.8719C140.338 15.4216 140.827 15.8234 141.377 15.7694L150.334 14.8895ZM0.844293 145.306C34.0739 150.548 55.359 140.907 69.6948 124.377C83.9521 107.938 91.2428 84.7848 96.804 63.195C99.5971 52.3517 101.941 41.9517 104.522 32.844C107.102 23.7365 109.874 16.0958 113.451 10.8104C117 5.56742 121.25 2.76056 126.848 3.01233C132.569 3.2696 139.923 6.71975 149.602 14.6671L150.871 13.1215C141.104 5.10185 133.326 1.30163 126.938 1.01435C120.428 0.721587 115.594 4.07601 111.795 9.68933C108.024 15.2602 105.183 23.1708 102.597 32.2988C100.012 41.4266 97.6363 51.9462 94.8673 62.6961C89.3044 84.2923 82.1014 107.019 68.1839 123.066C54.345 139.023 33.7744 148.476 1.1559 143.331L0.844293 145.306Z" fill="white"/>
</svg>
