<svg width="201" height="120" viewBox="0 0 201 120" fill="none" xmlns="http://www.w3.org/2000/svg">
<path d="M0.240661 112.349C-0.118708 112.768 -0.0700667 113.4 0.349304 113.759L7.18335 119.615C7.60272 119.975 8.23402 119.926 8.59339 119.507C8.95276 119.087 8.90412 118.456 8.48474 118.096L2.41003 112.891L7.6156 106.816C7.97497 106.397 7.92633 105.766 7.50696 105.406C7.08758 105.047 6.45629 105.095 6.09692 105.515L0.240661 112.349ZM200.037 10.9993C200.589 10.9791 201.02 10.5152 200.999 9.9633L200.669 0.969359C200.649 0.417446 200.185 -0.0135374 199.633 0.00673008C199.081 0.0269974 198.65 0.490841 198.67 1.04275L198.964 9.03737L190.969 9.33095C190.417 9.35121 189.986 9.81506 190.007 10.367C190.027 10.9189 190.491 11.3499 191.043 11.3296L200.037 10.9993ZM1.07682 113.997C66.6077 108.947 104.7 71.9075 132.263 41.8509C139.165 34.3251 145.373 27.2738 151.215 21.231C157.054 15.1903 162.459 10.231 167.71 6.89534C172.951 3.56566 177.969 1.8984 183.061 2.33109C188.153 2.76373 193.483 5.30994 199.319 10.7326L200.681 9.26742C194.634 3.64948 188.905 0.820338 183.231 0.338266C177.557 -0.143766 172.103 1.73489 166.637 5.20718C161.181 8.67348 155.643 13.7722 149.777 19.8409C143.912 25.9076 137.65 33.0172 130.789 40.4992C103.301 70.4737 65.6581 107.015 0.923178 112.003L1.07682 113.997Z" fill="white"/>
</svg>
