<svg width="128" height="38" viewBox="0 0 128 38" fill="none" xmlns="http://www.w3.org/2000/svg">
<path d="M0.577829 27.0934C0.0771665 27.3266 -0.139696 27.9214 0.0934502 28.4221L3.89279 36.5808C4.12594 37.0815 4.72081 37.2983 5.22147 37.0652C5.72213 36.8321 5.93899 36.2372 5.70584 35.7365L2.32865 28.4843L9.58086 25.1071C10.0815 24.874 10.2984 24.2791 10.0652 23.7784C9.83209 23.2778 9.23723 23.0609 8.73656 23.2941L0.577829 27.0934ZM126.324 14.1897C126.876 14.2019 127.334 13.7641 127.346 13.212L127.544 4.21413C127.556 3.66198 127.118 3.20453 126.566 3.19237C126.014 3.18022 125.557 3.61798 125.544 4.17013L125.368 12.1682L117.37 11.9922C116.818 11.9801 116.361 12.4178 116.349 12.97C116.336 13.5221 116.774 13.9796 117.326 13.9917L126.324 14.1897ZM0.65747 28.9394C25.6077 38.0352 43.3912 38.8897 56.7048 35.6432C70.0292 32.394 78.7394 25.0691 85.5821 18.1013C87.2895 16.3627 88.8855 14.641 90.4007 13.017C91.9203 11.3881 93.3568 9.85946 94.7646 8.4828C97.5926 5.71735 100.219 3.65468 103.005 2.6696C108.39 0.765594 114.956 2.73375 125.624 13.8813L127.069 12.4986C116.336 1.28286 108.949 -1.55334 102.338 0.78398C99.1263 1.91956 96.2438 4.23896 93.3662 7.05285C91.9213 8.46586 90.4557 10.0262 88.9383 11.6526C87.4165 13.2838 85.8405 14.9838 84.1551 16.7C77.4265 23.5515 69.0329 30.5784 56.231 33.7001C43.4184 36.8244 26.0532 36.0689 1.34248 27.0604L0.65747 28.9394Z" fill="white"/>
</svg>
