<svg width="123" height="107" viewBox="0 0 123 107" fill="none" xmlns="http://www.w3.org/2000/svg">
<path d="M3.03062 54.245C3.16628 54.7803 3.71026 55.1043 4.24562 54.9687L12.9699 52.7579C13.5052 52.6223 13.8293 52.0783 13.6936 51.5429C13.5579 51.0076 13.014 50.6835 12.4786 50.8192L4.72371 52.7843L2.75859 45.0294C2.62293 44.4941 2.07895 44.17 1.54359 44.3057C1.00823 44.4414 0.684209 44.9853 0.819867 45.5207L3.03062 54.245ZM114.03 106.01C114.42 106.401 115.053 106.401 115.444 106.011L121.81 99.6488C122.201 99.2584 122.201 98.6253 121.81 98.2346C121.42 97.844 120.787 97.8438 120.396 98.2342L114.738 103.889L109.082 98.2308C108.692 97.8401 108.059 97.84 107.668 98.2304C107.278 98.6208 107.277 99.2539 107.668 99.6446L114.03 106.01ZM4.85912 54.5111C21.9537 25.8123 37.3033 10.6093 50.6025 4.83063C57.2258 1.95274 63.3325 1.41475 68.9226 2.69501C74.523 3.97761 79.6821 7.10329 84.365 11.6773C93.7513 20.8452 101.109 35.7215 106.117 52.6389C111.118 69.5346 113.742 88.3543 113.737 105.303L115.737 105.304C115.742 88.1664 113.092 69.155 108.035 52.0713C102.984 35.0093 95.5005 19.758 85.7625 10.2465C80.8833 5.48083 75.4096 2.12888 69.3691 0.745483C63.3184 -0.64026 56.7763 -0.0326183 49.8055 2.99631C35.9163 9.03131 20.2962 24.6867 3.14085 53.4876L4.85912 54.5111Z" fill="white"/>
</svg>
