<svg width="90" height="103" viewBox="0 0 90 103" fill="none" xmlns="http://www.w3.org/2000/svg">
<path d="M0.0504587 9.68612C-0.122642 10.2106 0.162199 10.7761 0.686653 10.9492L9.23319 13.7699C9.75765 13.943 10.3231 13.6582 10.4962 13.1337C10.6693 12.6093 10.3845 12.0438 9.86003 11.8707L2.2631 9.36334L4.77044 1.76642C4.94354 1.24196 4.6587 0.67648 4.13425 0.503384C3.60979 0.330289 3.04431 0.615124 2.87121 1.13958L0.0504587 9.68612ZM79.8119 101.721C80.0345 102.226 80.6247 102.456 81.1301 102.233L89.3668 98.6059C89.8723 98.3833 90.1016 97.7931 89.879 97.2876C89.6564 96.7822 89.0662 96.5529 88.5608 96.7755L81.2393 99.9997L78.0151 92.6782C77.7925 92.1727 77.2023 91.9434 76.6969 92.166C76.1914 92.3886 75.9621 92.9788 76.1847 93.4842L79.8119 101.721ZM1.44993 10.8926C18.1599 2.47572 32.5016 0.979833 44.3189 4.09641C56.1393 7.21382 65.5666 14.981 72.3805 25.3389C86.037 46.0985 89.0686 77.0871 79.795 100.956L81.6592 101.68C91.1585 77.2306 88.0766 45.5599 74.0514 24.2398C67.0244 13.5579 57.2187 5.43009 44.8289 2.16253C32.436 -1.10585 17.5902 0.523274 0.550213 9.10644L1.44993 10.8926Z" fill="white"/>
</svg>
