<svg width="92" height="36" viewBox="0 0 92 36" fill="none" xmlns="http://www.w3.org/2000/svg">
<path d="M3.21631 0.0236756C2.6771 -0.0957899 2.14314 0.244479 2.02368 0.783689L0.0768728 9.57061C-0.0425925 10.1098 0.297677 10.6438 0.836886 10.7632C1.37609 10.8827 1.91006 10.5424 2.02952 10.0032L3.76001 2.19264L11.5706 3.92313C12.1098 4.04259 12.6438 3.70232 12.7632 3.16311C12.8827 2.62391 12.5424 2.08994 12.0032 1.97048L3.21631 0.0236756ZM91.9378 26.8473C92.1296 26.3294 91.8652 25.7541 91.3473 25.5623L82.9076 22.4364C82.3897 22.2446 81.8143 22.509 81.6225 23.0269C81.4307 23.5448 81.695 24.1201 82.2129 24.3119L89.7149 27.0904L86.9364 34.5924C86.7446 35.1103 87.0089 35.6857 87.5269 35.8775C88.0448 36.0693 88.6201 35.805 88.8119 35.2871L91.9378 26.8473ZM2.15668 1.53741C7.66122 10.1753 18.7019 21.7948 34.0018 28.6868C49.3409 35.5964 68.9353 37.7383 91.4175 27.4087L90.5825 25.5913C68.6647 35.6617 49.6758 33.5536 34.8232 26.8632C19.9315 20.1552 9.17212 8.8247 3.84332 0.46259L2.15668 1.53741Z" fill="white"/>
</svg>
