<svg width="123" height="125" viewBox="0 0 123 125" fill="none" xmlns="http://www.w3.org/2000/svg">
<path d="M104.275 71.2021C110.11 61.9171 112.688 48.0921 107.227 38.0221C102.169 28.7346 91.2664 24.2496 81.2222 23.9996C72.5335 23.7846 65.6356 26.3971 58.8559 31.5271C55.3602 34.1746 51.8277 37.0071 47.6186 38.5496C44.332 39.7546 40.952 40.5846 37.5621 41.5046C25.3039 44.8371 17.7493 56.1396 19.395 68.2921C20.6644 77.6321 27.7984 86.3196 36.9004 89.7896C43.9581 92.4796 51.375 90.4921 58.1941 88.1421C61.8694 86.8746 65.5741 85.5646 69.4535 84.9746C73.205 84.4021 76.8335 85.1171 80.5481 84.7046C89.7018 83.6896 99.1384 79.3846 104.275 71.2021Z" fill="#FF9C41"/>
<path opacity="0.7" d="M104.275 71.2021C110.11 61.9171 112.688 48.0921 107.227 38.0221C102.169 28.7346 91.2664 24.2496 81.2222 23.9996C72.5335 23.7846 65.6356 26.3971 58.8559 31.5271C55.3602 34.1746 51.8277 37.0071 47.6186 38.5496C44.332 39.7546 40.952 40.5846 37.5621 41.5046C25.3039 44.8371 17.7493 56.1396 19.395 68.2921C20.6644 77.6321 27.7984 86.3196 36.9004 89.7896C43.9581 92.4796 51.375 90.4921 58.1941 88.1421C61.8694 86.8746 65.5741 85.5646 69.4535 84.9746C73.205 84.4021 76.8335 85.1171 80.5481 84.7046C89.7018 83.6896 99.1384 79.3846 104.275 71.2021Z" fill="white"/>
<path d="M107.17 75.7471H106.129H59.025H57.9844V77.8671H59.025V99.4146H106.129V77.8671H107.17V75.7471Z" fill="#FF9C41"/>
<path opacity="0.5" d="M107.17 75.7471H106.129H59.025H57.9844V77.8671H59.025V99.4146H106.129V77.8671H107.17V75.7471Z" fill="white"/>
<path d="M60.2866 86.9993H73.1328V80.0293H60.2866V86.9993ZM60.5474 80.2868H72.872V86.7493H60.5474V80.2868Z" fill="white"/>
<path d="M76.2402 86.9993H89.0888V80.0293H76.2402V86.9993ZM76.5059 80.2943H88.833V86.7493H76.5059V80.2943Z" fill="white"/>
<path d="M92.1958 80.0293V86.9993H105.042V80.0293H92.1958ZM104.781 86.7493H92.4566V80.2943H104.781V86.7493Z" fill="white"/>
<path d="M60.2866 96.3691H73.1328V89.3916H60.2866V96.3691ZM60.5474 89.6566H72.872V96.1041H60.5474V89.6566Z" fill="white"/>
<path d="M76.2402 96.3691H89.0888V89.3916H76.2402V96.3691ZM76.5059 89.6566H88.833V96.1041H76.5059V89.6566Z" fill="white"/>
<path d="M92.1958 96.3691H105.042V89.3916H92.1958V96.3691ZM92.4566 89.6566H104.781V96.1041H92.4566V89.6566Z" fill="white"/>
<path d="M66.8478 84.4025C67.9999 84.4025 68.9339 84.0466 68.9339 83.6075C68.9339 83.1684 67.9999 82.8125 66.8478 82.8125C65.6957 82.8125 64.7617 83.1684 64.7617 83.6075C64.7617 84.0466 65.6957 84.4025 66.8478 84.4025Z" fill="white"/>
<path d="M82.7248 84.4025C83.8769 84.4025 84.8108 84.0466 84.8108 83.6075C84.8108 83.1684 83.8769 82.8125 82.7248 82.8125C81.5726 82.8125 80.6387 83.1684 80.6387 83.6075C80.6387 84.0466 81.5726 84.4025 82.7248 84.4025Z" fill="white"/>
<path d="M99.0617 84.4025C100.214 84.4025 101.148 84.0466 101.148 83.6075C101.148 83.1684 100.214 82.8125 99.0617 82.8125C97.9096 82.8125 96.9756 83.1684 96.9756 83.6075C96.9756 84.0466 97.9096 84.4025 99.0617 84.4025Z" fill="white"/>
<path d="M66.8478 92.1748C65.6965 92.1748 64.7617 92.5298 64.7617 92.9698C64.7617 93.4098 65.6965 93.7623 66.8478 93.7623C67.9991 93.7623 68.9339 93.4073 68.9339 92.9698C68.9339 92.5323 67.9991 92.1748 66.8478 92.1748Z" fill="white"/>
<path d="M82.7248 92.1748C81.5735 92.1748 80.6387 92.5298 80.6387 92.9698C80.6387 93.4098 81.5735 93.7623 82.7248 93.7623C83.876 93.7623 84.8108 93.4073 84.8108 92.9698C84.8108 92.5323 83.8859 92.1748 82.7248 92.1748Z" fill="white"/>
<path d="M99.0616 92.1748C97.9104 92.1748 96.978 92.5298 96.978 92.9698C96.978 93.4098 97.9104 93.7623 99.0616 93.7623C100.213 93.7623 101.148 93.4073 101.148 92.9698C101.148 92.5323 100.215 92.1748 99.0616 92.1748Z" fill="white"/>
<path d="M52.1965 73.8951C51.2469 75.3276 49.9234 77.1901 49.2174 78.6851C49.4856 77.7001 49.7488 76.7676 49.9874 75.9351C50.349 75.2126 51.3183 73.3901 52.4474 72.1851C53.8668 70.6401 54.4744 69.6476 53.7094 69.5626C53.1805 69.5026 51.6307 71.6001 50.659 73.6826C50.8705 72.9701 51.0378 72.4326 51.151 72.1101C51.1977 71.9651 51.242 71.8076 51.2863 71.6401C52.2914 70.211 53.2067 68.7189 54.0267 67.1726C55.4609 64.4501 55.9234 61.8801 54.9664 62.9851C54.0858 64.0026 52.5532 69.0626 51.3355 71.4426C51.4388 71.0326 51.5372 70.5801 51.6233 70.1326C51.7955 69.7001 52.0218 69.2601 52.1497 68.8601C52.349 68.2451 52.5237 67.6251 52.6639 66.9926C52.8951 66.0099 53.0124 65.003 53.0132 63.9926C53.0379 62.8058 52.7197 61.6376 52.0981 60.6326C51.9333 60.3826 50.9247 58.8501 50.6221 59.6326C50.5827 59.7629 50.5751 59.9011 50.5999 60.0351C50.7475 61.3376 51.2125 62.5351 51.5003 63.8026C51.9308 65.7001 51.6454 68.8851 51.5003 70.2401C51.4462 70.4551 51.3773 70.7201 51.2961 71.0276C51.4954 68.6676 50.4892 65.8701 49.5569 65.3801C48.4032 64.7751 49.5348 67.1501 50.4253 69.2251C50.8471 70.1332 51.0455 71.1318 51.0034 72.1351C50.8213 72.8151 50.6122 73.5826 50.3958 74.3576C50.3515 74.4626 50.3121 74.5701 50.2728 74.6751C50.3728 74.1693 50.4133 73.6531 50.3933 73.1376C50.3097 71.7826 48.7992 69.0701 47.7955 69.4526C46.7919 69.8351 48.4917 71.2651 49.3995 72.9301C49.8757 73.8508 50.0588 74.8991 49.9234 75.9301C49.9234 75.9926 49.9038 76.0526 49.8964 76.1101C49.7906 76.4651 49.6873 76.8051 49.5889 77.1301C49.3429 77.8801 49.1338 78.6001 48.9247 79.2951C49.1816 78.2867 49.2942 77.2461 49.2592 76.2051C49.1338 74.2201 47.9899 72.3451 47.0452 72.0876C46.1006 71.8301 47.9038 75.0701 48.5089 76.8901C48.838 77.9531 48.8939 79.0839 48.6713 80.1751C48.3786 81.1601 48.103 82.1326 47.8201 83.1601C47.8991 81.8141 47.8703 80.4638 47.734 79.1226C47.5495 76.9126 46.258 75.5026 45.3675 75.5601C44.477 75.6176 45.4069 76.8726 46.691 79.5601C47.369 80.9712 47.671 82.5383 47.5668 84.1051C47.4511 84.5376 47.3208 84.9826 47.2125 85.4476C47.0748 85.9776 46.9665 86.5551 46.8681 87.1451C46.7402 86.6176 46.5483 85.8476 46.3245 84.9976C46.0638 84.0579 45.8746 83.0992 45.7587 82.1301C45.6381 81.0026 45.3454 79.5951 44.2581 79.0101C44.1842 78.9578 44.0999 78.9225 44.0112 78.9068C43.9224 78.8911 43.8314 78.8953 43.7444 78.9191C43.6575 78.9429 43.5767 78.9858 43.5078 79.0447C43.4388 79.1036 43.3834 79.1771 43.3454 79.2601C43.2456 79.502 43.2233 79.7696 43.2814 80.0251C43.4258 80.7921 43.6742 81.535 44.0194 82.2326C43.8058 82.6488 43.7088 83.1167 43.739 83.5851C43.739 83.7601 43.7538 83.9351 43.7661 84.1101C43.6701 83.9301 43.5791 83.7651 43.493 83.6101C43.3367 83.345 43.1446 83.1035 42.9223 82.8926C42.978 82.4783 43.0059 82.0607 43.0059 81.6426C43.0059 81.0951 42.3737 79.6976 41.803 80.7326C41.5742 81.1476 41.6185 81.9601 41.5963 82.5001C41.4414 82.6501 41.3946 82.9551 41.525 83.4351C41.4364 84.6851 41.4192 85.9651 41.7169 87.1851L41.5201 86.8376C41.2428 85.3913 41.0783 83.9251 41.0281 82.4526C40.9567 80.0201 41.338 78.0251 40.6861 77.2751C40.0342 76.5251 39.6702 79.1626 39.9481 82.0376C40.0791 83.3494 40.4232 84.6302 40.9666 85.8276C40.327 84.6601 39.6948 83.4701 39.097 82.3276C38.851 81.7151 38.2409 80.0576 38.391 78.3776C38.5804 76.2601 38.7181 74.5251 37.926 73.3326C37.1339 72.1401 36.9691 72.9151 37.3578 75.4001C37.6234 77.1051 37.9063 79.3851 38.3934 80.9676C37.9309 80.0601 37.4955 79.1976 37.1068 78.4176C36.8854 77.6376 36.3688 75.6351 36.3688 73.9726C36.3688 71.8576 36.1474 70.7226 35.5324 71.1801C35.1044 71.5026 35.3799 74.1126 36.0687 76.3076C35.7465 75.6401 35.5029 75.1276 35.3627 74.8251C35.2987 74.6876 35.2274 74.5401 35.1462 74.3876C34.9211 72.6464 34.5884 70.9213 34.1499 69.2226C33.3701 66.2376 31.9802 64.0376 32.0245 65.5101C32.0638 66.8651 34.3418 71.6251 35.0527 74.2101C34.851 73.8376 34.6173 73.4401 34.3812 73.0526C34.2163 72.6151 34.086 72.1376 33.9113 71.7576C33.6432 71.1701 33.3553 70.5951 33.0331 70.0351C32.5409 69.1545 31.949 68.3356 31.2693 67.5951C30.4819 66.6839 29.4444 66.0327 28.2902 65.7251C27.9999 65.6551 26.2386 65.2251 26.5387 66.0251C26.5948 66.1471 26.6792 66.2535 26.7847 66.3351C27.7687 67.1851 28.9101 67.7376 29.9827 68.4651C31.5718 69.5551 33.5029 72.0801 34.3 73.1776L34.6788 73.8951C33.2397 72.0301 30.6247 70.6851 29.6161 70.9751C28.3665 71.3326 30.7871 72.2826 32.8314 73.1801C33.7499 73.551 34.5656 74.144 35.2077 74.9076C35.5324 75.5326 35.8941 76.2351 36.2557 76.9526C36.2975 77.0601 36.3369 77.1651 36.3787 77.2701C36.1128 76.831 35.7966 76.4257 35.4365 76.0626C34.4648 75.1326 31.5374 74.1951 31.0626 75.1701C30.5878 76.1451 32.7846 76.0151 34.5706 76.6001C35.5325 76.9431 36.3667 77.5796 36.9592 78.4226C36.9937 78.4726 37.0257 78.5251 37.0601 78.5726C37.2225 78.9026 37.375 79.2251 37.5201 79.5301C37.8547 80.2476 38.1745 80.9201 38.4869 81.5726C37.9993 80.6542 37.3836 79.8121 36.6591 79.0726C35.2323 77.7076 33.1364 77.1326 32.268 77.6076C31.3996 78.0826 34.8978 79.1901 36.5632 80.1076C37.5178 80.6567 38.3181 81.445 38.8879 82.3976C39.3356 83.3201 39.7858 84.2226 40.2704 85.1701C39.4242 84.1318 38.4971 83.1645 37.498 82.2776C35.8768 80.7901 33.9851 80.6551 33.3726 81.3151C32.76 81.9751 34.2828 82.2476 37.0232 83.3151C38.4653 83.876 39.7376 84.8112 40.7132 86.0276C40.9198 86.4251 41.1314 86.8326 41.3577 87.2576C41.6037 87.7376 41.9161 88.2376 42.2458 88.7351C41.7981 88.4401 41.1388 88.0101 40.4057 87.5451C39.583 87.0391 38.8008 86.4682 38.0662 85.8376C37.22 85.1001 36.0613 84.2726 34.8682 84.6001C34.7794 84.6132 34.6945 84.6461 34.6196 84.6963C34.5446 84.7465 34.4814 84.8128 34.4345 84.8905C34.3876 84.9683 34.358 85.0556 34.348 85.1462C34.3379 85.2369 34.3475 85.3286 34.3762 85.4151C34.4631 85.6623 34.6262 85.8745 34.8412 86.0201C35.9629 86.9026 37.4709 87.3276 38.7772 87.8501C39.9742 88.3287 41.2012 88.7263 42.45 89.0401C42.7599 89.4926 43.0822 89.9401 43.4069 90.3651L42.8214 90.3826C42.1277 90.4051 38.9986 88.9626 37.4094 88.5001C35.8203 88.0376 34.3344 88.9126 35.9998 89.8226C37.6653 90.7326 42.1941 90.5301 42.1941 90.5301L43.5004 90.4901C43.8079 90.8901 44.108 91.2701 44.3934 91.6176H38.1868V93.3676H39.4168L40.4008 99.5901H48.6492L49.6455 93.3676H50.8755V91.6176H46.7648C46.7316 90.8613 46.7513 90.1035 46.8238 89.3501C47.0981 89.0666 47.4026 88.8151 47.7316 88.6001C49.5372 87.3326 52.5975 87.2276 53.4117 84.7851C53.6085 84.1976 53.3847 83.4426 52.6934 83.4751C52.2014 83.4976 51.6676 83.9426 51.3576 84.3051C50.3244 85.5176 49.5471 86.7751 48.2039 87.6951C47.7424 88.0556 47.2991 88.4394 46.8755 88.8451C46.9222 88.4476 46.9813 88.0226 47.0575 87.5676C47.3821 86.9826 47.7523 86.425 48.1645 85.9001C49.2642 84.5126 50.937 83.7001 52.1251 82.3776C52.4892 81.9726 52.9689 80.5176 51.857 80.8776C51.365 81.0376 50.7795 81.8001 50.381 82.1476C49.2863 83.1476 48.167 84.2126 47.4536 85.5276C47.4831 85.3976 47.5151 85.2776 47.5446 85.1376C48.3121 83.887 49.1766 82.7007 50.1301 81.5901C51.7094 79.7651 53.3281 78.5701 53.3551 77.5701C53.3822 76.5701 51.3453 78.2451 49.6159 80.5351C48.8314 81.5856 48.223 82.7606 47.8152 84.0126C48.1326 82.7176 48.4696 81.4076 48.7992 80.1526C49.0255 79.5276 49.6971 77.9026 50.9345 76.7751C52.4966 75.3576 53.761 74.1876 53.9849 72.7751C54.2088 71.3626 53.5815 71.8101 52.1965 73.8951ZM43.461 89.9751C43.2273 89.6526 42.9838 89.3026 42.723 88.9151C42.5677 88.2578 42.464 87.589 42.4131 86.9151C42.3815 86.3414 42.4079 85.7659 42.4918 85.1976C42.9116 85.7259 43.3574 86.2324 43.8276 86.7151C43.8163 87.2149 43.7562 87.7124 43.648 88.2001C43.5558 88.7881 43.4934 89.3806 43.461 89.9751ZM44.7993 91.6226C44.4819 91.2801 44.1351 90.8726 43.7587 90.3726C43.7681 89.976 43.8218 89.5819 43.9186 89.1976C44.0688 88.5917 44.285 88.0048 44.5631 87.4476C45.1461 88.0101 45.5742 88.3826 45.5742 88.3826L46.5582 89.2601C46.4819 90.1326 46.4376 90.9526 46.4106 91.6176L44.7993 91.6226ZM46.5705 89.1076L46.1301 88.7151C45.8841 88.4901 45.4413 87.6201 44.9592 86.6176C45.1648 86.1957 45.3471 85.7626 45.5053 85.3201C46.0268 86.3026 46.4893 87.0701 46.7623 87.4776C46.6836 88.0201 46.6221 88.5726 46.5705 89.1076Z" fill="#FF9C41"/>
<path opacity="0.5" d="M52.1965 73.8951C51.2469 75.3276 49.9234 77.1901 49.2174 78.6851C49.4856 77.7001 49.7488 76.7676 49.9874 75.9351C50.349 75.2126 51.3183 73.3901 52.4474 72.1851C53.8668 70.6401 54.4744 69.6476 53.7094 69.5626C53.1805 69.5026 51.6307 71.6001 50.659 73.6826C50.8705 72.9701 51.0378 72.4326 51.151 72.1101C51.1977 71.9651 51.242 71.8076 51.2863 71.6401C52.2914 70.211 53.2067 68.7189 54.0267 67.1726C55.4609 64.4501 55.9234 61.8801 54.9664 62.9851C54.0858 64.0026 52.5532 69.0626 51.3355 71.4426C51.4388 71.0326 51.5372 70.5801 51.6233 70.1326C51.7955 69.7001 52.0218 69.2601 52.1497 68.8601C52.349 68.2451 52.5237 67.6251 52.6639 66.9926C52.8951 66.0099 53.0124 65.003 53.0132 63.9926C53.0379 62.8058 52.7197 61.6376 52.0981 60.6326C51.9333 60.3826 50.9247 58.8501 50.6221 59.6326C50.5827 59.7629 50.5751 59.9011 50.5999 60.0351C50.7475 61.3376 51.2125 62.5351 51.5003 63.8026C51.9308 65.7001 51.6454 68.8851 51.5003 70.2401C51.4462 70.4551 51.3773 70.7201 51.2961 71.0276C51.4954 68.6676 50.4892 65.8701 49.5569 65.3801C48.4032 64.7751 49.5348 67.1501 50.4253 69.2251C50.8471 70.1332 51.0455 71.1318 51.0034 72.1351C50.8213 72.8151 50.6122 73.5826 50.3958 74.3576C50.3515 74.4626 50.3121 74.5701 50.2728 74.6751C50.3728 74.1693 50.4133 73.6531 50.3933 73.1376C50.3097 71.7826 48.7992 69.0701 47.7955 69.4526C46.7919 69.8351 48.4917 71.2651 49.3995 72.9301C49.8757 73.8508 50.0588 74.8991 49.9234 75.9301C49.9234 75.9926 49.9038 76.0526 49.8964 76.1101C49.7906 76.4651 49.6873 76.8051 49.5889 77.1301C49.3429 77.8801 49.1338 78.6001 48.9247 79.2951C49.1816 78.2867 49.2942 77.2461 49.2592 76.2051C49.1338 74.2201 47.9899 72.3451 47.0452 72.0876C46.1006 71.8301 47.9038 75.0701 48.5089 76.8901C48.838 77.9531 48.8939 79.0839 48.6713 80.1751C48.3786 81.1601 48.103 82.1326 47.8201 83.1601C47.8991 81.8141 47.8703 80.4638 47.734 79.1226C47.5495 76.9126 46.258 75.5026 45.3675 75.5601C44.477 75.6176 45.4069 76.8726 46.691 79.5601C47.369 80.9712 47.671 82.5383 47.5668 84.1051C47.4511 84.5376 47.3208 84.9826 47.2125 85.4476C47.0748 85.9776 46.9665 86.5551 46.8681 87.1451C46.7402 86.6176 46.5483 85.8476 46.3245 84.9976C46.0638 84.0579 45.8746 83.0992 45.7587 82.1301C45.6381 81.0026 45.3454 79.5951 44.2581 79.0101C44.1842 78.9578 44.0999 78.9225 44.0112 78.9068C43.9224 78.8911 43.8314 78.8953 43.7444 78.9191C43.6575 78.9429 43.5767 78.9858 43.5078 79.0447C43.4388 79.1036 43.3834 79.1771 43.3454 79.2601C43.2456 79.502 43.2233 79.7696 43.2814 80.0251C43.4258 80.7921 43.6742 81.535 44.0194 82.2326C43.8058 82.6488 43.7088 83.1167 43.739 83.5851C43.739 83.7601 43.7538 83.9351 43.7661 84.1101C43.6701 83.9301 43.5791 83.7651 43.493 83.6101C43.3367 83.345 43.1446 83.1035 42.9223 82.8926C42.978 82.4783 43.0059 82.0607 43.0059 81.6426C43.0059 81.0951 42.3737 79.6976 41.803 80.7326C41.5742 81.1476 41.6185 81.9601 41.5963 82.5001C41.4414 82.6501 41.3946 82.9551 41.525 83.4351C41.4364 84.6851 41.4192 85.9651 41.7169 87.1851L41.5201 86.8376C41.2428 85.3913 41.0783 83.9251 41.0281 82.4526C40.9567 80.0201 41.338 78.0251 40.6861 77.2751C40.0342 76.5251 39.6702 79.1626 39.9481 82.0376C40.0791 83.3494 40.4232 84.6302 40.9666 85.8276C40.327 84.6601 39.6948 83.4701 39.097 82.3276C38.851 81.7151 38.2409 80.0576 38.391 78.3776C38.5804 76.2601 38.7181 74.5251 37.926 73.3326C37.1339 72.1401 36.9691 72.9151 37.3578 75.4001C37.6234 77.1051 37.9063 79.3851 38.3934 80.9676C37.9309 80.0601 37.4955 79.1976 37.1068 78.4176C36.8854 77.6376 36.3688 75.6351 36.3688 73.9726C36.3688 71.8576 36.1474 70.7226 35.5324 71.1801C35.1044 71.5026 35.3799 74.1126 36.0687 76.3076C35.7465 75.6401 35.5029 75.1276 35.3627 74.8251C35.2987 74.6876 35.2274 74.5401 35.1462 74.3876C34.9211 72.6464 34.5884 70.9213 34.1499 69.2226C33.3701 66.2376 31.9802 64.0376 32.0245 65.5101C32.0638 66.8651 34.3418 71.6251 35.0527 74.2101C34.851 73.8376 34.6173 73.4401 34.3812 73.0526C34.2163 72.6151 34.086 72.1376 33.9113 71.7576C33.6432 71.1701 33.3553 70.5951 33.0331 70.0351C32.5409 69.1545 31.949 68.3356 31.2693 67.5951C30.4819 66.6839 29.4444 66.0327 28.2902 65.7251C27.9999 65.6551 26.2386 65.2251 26.5387 66.0251C26.5948 66.1471 26.6792 66.2535 26.7847 66.3351C27.7687 67.1851 28.9101 67.7376 29.9827 68.4651C31.5718 69.5551 33.5029 72.0801 34.3 73.1776L34.6788 73.8951C33.2397 72.0301 30.6247 70.6851 29.6161 70.9751C28.3665 71.3326 30.7871 72.2826 32.8314 73.1801C33.7499 73.551 34.5656 74.144 35.2077 74.9076C35.5324 75.5326 35.8941 76.2351 36.2557 76.9526C36.2975 77.0601 36.3369 77.1651 36.3787 77.2701C36.1128 76.831 35.7966 76.4257 35.4365 76.0626C34.4648 75.1326 31.5374 74.1951 31.0626 75.1701C30.5878 76.1451 32.7846 76.0151 34.5706 76.6001C35.5325 76.9431 36.3667 77.5796 36.9592 78.4226C36.9937 78.4726 37.0257 78.5251 37.0601 78.5726C37.2225 78.9026 37.375 79.2251 37.5201 79.5301C37.8547 80.2476 38.1745 80.9201 38.4869 81.5726C37.9993 80.6542 37.3836 79.8121 36.6591 79.0726C35.2323 77.7076 33.1364 77.1326 32.268 77.6076C31.3996 78.0826 34.8978 79.1901 36.5632 80.1076C37.5178 80.6567 38.3181 81.445 38.8879 82.3976C39.3356 83.3201 39.7858 84.2226 40.2704 85.1701C39.4242 84.1318 38.4971 83.1645 37.498 82.2776C35.8768 80.7901 33.9851 80.6551 33.3726 81.3151C32.76 81.9751 34.2828 82.2476 37.0232 83.3151C38.4653 83.876 39.7376 84.8112 40.7132 86.0276C40.9198 86.4251 41.1314 86.8326 41.3577 87.2576C41.6037 87.7376 41.9161 88.2376 42.2458 88.7351C41.7981 88.4401 41.1388 88.0101 40.4057 87.5451C39.583 87.0391 38.8008 86.4682 38.0662 85.8376C37.22 85.1001 36.0613 84.2726 34.8682 84.6001C34.7794 84.6132 34.6945 84.6461 34.6196 84.6963C34.5446 84.7465 34.4814 84.8128 34.4345 84.8905C34.3876 84.9683 34.358 85.0556 34.348 85.1462C34.3379 85.2369 34.3475 85.3286 34.3762 85.4151C34.4631 85.6623 34.6262 85.8745 34.8412 86.0201C35.9629 86.9026 37.4709 87.3276 38.7772 87.8501C39.9742 88.3287 41.2012 88.7263 42.45 89.0401C42.7599 89.4926 43.0822 89.9401 43.4069 90.3651L42.8214 90.3826C42.1277 90.4051 38.9986 88.9626 37.4094 88.5001C35.8203 88.0376 34.3344 88.9126 35.9998 89.8226C37.6653 90.7326 42.1941 90.5301 42.1941 90.5301L43.5004 90.4901C43.8079 90.8901 44.108 91.2701 44.3934 91.6176H38.1868V93.3676H39.4168L40.4008 99.5901H48.6492L49.6455 93.3676H50.8755V91.6176H46.7648C46.7316 90.8613 46.7513 90.1035 46.8238 89.3501C47.0981 89.0666 47.4026 88.8151 47.7316 88.6001C49.5372 87.3326 52.5975 87.2276 53.4117 84.7851C53.6085 84.1976 53.3847 83.4426 52.6934 83.4751C52.2014 83.4976 51.6676 83.9426 51.3576 84.3051C50.3244 85.5176 49.5471 86.7751 48.2039 87.6951C47.7424 88.0556 47.2991 88.4394 46.8755 88.8451C46.9222 88.4476 46.9813 88.0226 47.0575 87.5676C47.3821 86.9826 47.7523 86.425 48.1645 85.9001C49.2642 84.5126 50.937 83.7001 52.1251 82.3776C52.4892 81.9726 52.9689 80.5176 51.857 80.8776C51.365 81.0376 50.7795 81.8001 50.381 82.1476C49.2863 83.1476 48.167 84.2126 47.4536 85.5276C47.4831 85.3976 47.5151 85.2776 47.5446 85.1376C48.3121 83.887 49.1766 82.7007 50.1301 81.5901C51.7094 79.7651 53.3281 78.5701 53.3551 77.5701C53.3822 76.5701 51.3453 78.2451 49.6159 80.5351C48.8314 81.5856 48.223 82.7606 47.8152 84.0126C48.1326 82.7176 48.4696 81.4076 48.7992 80.1526C49.0255 79.5276 49.6971 77.9026 50.9345 76.7751C52.4966 75.3576 53.761 74.1876 53.9849 72.7751C54.2088 71.3626 53.5815 71.8101 52.1965 73.8951ZM43.461 89.9751C43.2273 89.6526 42.9838 89.3026 42.723 88.9151C42.5677 88.2578 42.464 87.589 42.4131 86.9151C42.3815 86.3414 42.4079 85.7659 42.4918 85.1976C42.9116 85.7259 43.3574 86.2324 43.8276 86.7151C43.8163 87.2149 43.7562 87.7124 43.648 88.2001C43.5558 88.7881 43.4934 89.3806 43.461 89.9751ZM44.7993 91.6226C44.4819 91.2801 44.1351 90.8726 43.7587 90.3726C43.7681 89.976 43.8218 89.5819 43.9186 89.1976C44.0688 88.5917 44.285 88.0048 44.5631 87.4476C45.1461 88.0101 45.5742 88.3826 45.5742 88.3826L46.5582 89.2601C46.4819 90.1326 46.4376 90.9526 46.4106 91.6176L44.7993 91.6226ZM46.5705 89.1076L46.1301 88.7151C45.8841 88.4901 45.4413 87.6201 44.9592 86.6176C45.1648 86.1957 45.3471 85.7626 45.5053 85.3201C46.0268 86.3026 46.4893 87.0701 46.7623 87.4776C46.6836 88.0201 46.6221 88.5726 46.5705 89.1076Z" fill="white"/>
<path d="M27.9336 26.8154V52.1654H46.8756V26.8154H27.9336ZM45.562 50.3979H29.2571V28.5854H45.562V50.3979Z" fill="#FF9C41"/>
<path opacity="0.5" d="M27.9336 26.8154V52.1654H46.8756V26.8154H27.9336ZM45.562 50.3979H29.2571V28.5854H45.562V50.3979Z" fill="white"/>
<path d="M94.2183 39.1826V57.9026H108.211V39.1826H94.2183ZM107.234 56.5951H95.2023V40.5001H107.241L107.234 56.5951Z" fill="#FF9C41"/>
<path opacity="0.5" d="M94.2183 39.1826V57.9026H108.211V39.1826H94.2183ZM107.234 56.5951H95.2023V40.5001H107.241L107.234 56.5951Z" fill="white"/>
<path d="M14.2134 102.205C14.9194 99.7749 22.233 74.5149 22.2084 74.3249C22.1838 74.1349 22.8062 70.7424 24.2625 67.9149C25.7188 65.0874 27.7409 61.9374 27.9943 61.5524C28.3799 60.9251 28.6376 60.2254 28.752 59.4949C28.9414 58.4674 30.966 55.6374 31.5982 54.8674C32.2304 54.0974 34.1271 50.0474 34.255 49.4049C34.3829 48.7624 35.1381 48.2474 36.1517 48.0549C37.1652 47.8624 38.5551 47.6699 38.5551 47.6699C38.8123 47.9776 38.9673 48.3599 38.9979 48.7624C38.9979 49.3399 36.7199 63.1574 36.5945 65.4724C36.469 67.7874 36.7839 69.0699 35.7728 71.4499C34.7618 73.8299 31.7876 75.3049 30.3338 76.2699C28.8799 77.2349 28.9906 77.4349 28.9906 77.4349C28.9906 77.4349 29.8122 100.567 29.7926 102.385" fill="white"/>
<g style="mix-blend-mode:multiply" opacity="0.7">
<path d="M39.9229 62.827C39.6597 61.6295 37.9549 62.2945 37.9549 62.2945C36.794 63.5748 35.3648 64.5736 33.7729 65.217C31.1084 66.2409 28.5336 67.4912 26.0756 68.9545C26.356 68.382 26.6611 67.8045 26.9907 67.2045C28.6906 64.1495 31.6967 60.032 33.3867 59.4995C34.4298 59.1745 35.4703 59.847 36.1198 60.417L36.1936 48.042H36.1518C35.1382 48.2345 34.3806 48.7495 34.2551 49.392C34.1296 50.0345 32.2305 54.082 31.5983 54.8545C30.9661 55.627 28.9415 58.4545 28.7521 59.482C28.6377 60.2125 28.38 60.9121 27.9944 61.5395C27.7484 61.9245 25.7164 65.072 24.2626 67.902C22.8087 70.732 22.1839 74.1195 22.2085 74.312C22.2257 74.452 19.4115 84.812 17.623 91.332C19.099 88.382 21.3942 83.6095 22.789 80.082C23.3376 80.027 24.4003 78.517 25.281 77.287C26.3265 75.827 27.8935 75.427 31.0325 73.037C34.1715 70.647 37.6966 67.3245 38.2206 65.997C38.7446 64.6695 40.1837 64.022 39.9229 62.827Z" fill="#FF9C41"/>
</g>
<path d="M14.2134 102.205C14.9194 99.7749 22.233 74.5149 22.2084 74.3249C22.1838 74.1349 22.8062 70.7424 24.2625 67.9149C25.7188 65.0874 27.7409 61.9374 27.9943 61.5524C28.3799 60.9251 28.6376 60.2254 28.752 59.4949C28.9414 58.4674 30.966 55.6374 31.5982 54.8674C32.2304 54.0974 34.1271 50.0474 34.255 49.4049C34.3829 48.7624 35.1381 48.2474 36.1517 48.0549C37.1652 47.8624 38.5551 47.6699 38.5551 47.6699C38.8123 47.9776 38.9673 48.3599 38.9979 48.7624C38.9979 49.3399 36.7199 63.1574 36.5945 65.4724C36.469 67.7874 36.7839 69.0699 35.7728 71.4499C34.7618 73.8299 31.7876 75.3049 30.3338 76.2699C28.8799 77.2349 28.9906 77.4349 28.9906 77.4349C28.9906 77.4349 29.8122 100.567 29.7926 102.385" stroke="#2E353A" stroke-linecap="round" stroke-linejoin="round"/>
<path d="M36.0242 63.4144C36.0242 63.4144 35.3305 63.3494 34.6343 62.0645" stroke="#2E353A" stroke-linecap="round" stroke-linejoin="round"/>
<path d="M35.2661 55.125C35.2661 55.125 37.2341 55.51 37.4801 57.18" stroke="#2E353A" stroke-linecap="round" stroke-linejoin="round"/>
<path d="M35.8984 49.917C36.3337 50.2536 36.694 50.68 36.9556 51.1682C37.2172 51.6564 37.3742 52.1953 37.4163 52.7495" stroke="#2E353A" stroke-linecap="round" stroke-linejoin="round"/>
<path d="M99.6665 63.4199L99.5115 36.7274C99.5109 35.9494 99.2063 35.2036 98.6648 34.6537C98.1232 34.1038 97.389 33.7949 96.6235 33.7949H39.1456C38.3803 33.7949 37.6463 34.1039 37.1051 34.6538C36.564 35.2038 36.26 35.9497 36.26 36.7274L36.1025 63.4199C36.1022 63.809 36.1774 64.1944 36.3238 64.554C36.4702 64.9136 36.6849 65.2403 36.9556 65.5154C37.2264 65.7906 37.5479 66.0088 37.9017 66.1576C38.2555 66.3063 38.6347 66.3827 39.0176 66.3824H96.7514C97.1343 66.3827 97.5135 66.3063 97.8673 66.1576C98.2212 66.0088 98.5426 65.7906 98.8134 65.5154C99.0842 65.2403 99.2989 64.9136 99.4453 64.554C99.5916 64.1944 99.6668 63.809 99.6665 63.4199Z" fill="#2E353A" stroke="#363636" stroke-width="0.868674" stroke-linecap="round" stroke-linejoin="round"/>
<path d="M96.4365 64.932L96.311 35.2295H39.458L39.335 64.932H96.4365Z" fill="white" stroke="#363636" stroke-width="0.651505" stroke-linecap="round" stroke-linejoin="round"/>
<path d="M96.3116 35.2295H39.4585L39.4536 36.712H44.9148L46.3121 38.742H96.3264L96.3116 35.2295Z" fill="#FF9C41" stroke="#2E353A" stroke-linecap="round" stroke-linejoin="round"/>
<g style="mix-blend-mode:multiply" opacity="0.5">
<path d="M96.3108 41.1396L56.3481 64.9322H96.4363L96.3108 41.1396Z" fill="#FF9C41"/>
</g>
<path d="M98.3414 50.0729C98.3445 49.8258 98.1499 49.6228 97.9068 49.6196C97.6636 49.6164 97.4639 49.8142 97.4608 50.0613C97.4576 50.3085 97.6522 50.5114 97.8954 50.5146C98.1386 50.5178 98.3382 50.32 98.3414 50.0729Z" fill="white"/>
<path d="M43.8371 46.0829C45.1373 46.0829 46.1913 45.0117 46.1913 43.6904C46.1913 42.369 45.1373 41.2979 43.8371 41.2979C42.5369 41.2979 41.4829 42.369 41.4829 43.6904C41.4829 45.0117 42.5369 46.0829 43.8371 46.0829Z" fill="#FF9C41" stroke="#2E353A" stroke-linecap="round" stroke-linejoin="round"/>
<path d="M43.8371 55.9198C45.1373 55.9198 46.1913 54.8486 46.1913 53.5273C46.1913 52.2059 45.1373 51.1348 43.8371 51.1348C42.5369 51.1348 41.4829 52.2059 41.4829 53.5273C41.4829 54.8486 42.5369 55.9198 43.8371 55.9198Z" fill="white" stroke="#2E353A" stroke-linecap="round" stroke-linejoin="round"/>
<path d="M59.925 46.0829C61.2252 46.0829 62.2792 45.0117 62.2792 43.6904C62.2792 42.369 61.2252 41.2979 59.925 41.2979C58.6248 41.2979 57.5708 42.369 57.5708 43.6904C57.5708 45.0117 58.6248 46.0829 59.925 46.0829Z" fill="white" stroke="#2E353A" stroke-linecap="round" stroke-linejoin="round"/>
<path d="M59.925 55.9198C61.2252 55.9198 62.2792 54.8486 62.2792 53.5273C62.2792 52.2059 61.2252 51.1348 59.925 51.1348C58.6248 51.1348 57.5708 52.2059 57.5708 53.5273C57.5708 54.8486 58.6248 55.9198 59.925 55.9198Z" fill="#FF9C41" stroke="#2E353A" stroke-linecap="round" stroke-linejoin="round"/>
<path d="M76.0158 46.0829C77.316 46.0829 78.37 45.0117 78.37 43.6904C78.37 42.369 77.316 41.2979 76.0158 41.2979C74.7156 41.2979 73.6616 42.369 73.6616 43.6904C73.6616 45.0117 74.7156 46.0829 76.0158 46.0829Z" fill="#FF9C41" stroke="#2E353A" stroke-linecap="round" stroke-linejoin="round"/>
<path d="M76.0158 55.9198C77.316 55.9198 78.37 54.8486 78.37 53.5273C78.37 52.2059 77.316 51.1348 76.0158 51.1348C74.7156 51.1348 73.6616 52.2059 73.6616 53.5273C73.6616 54.8486 74.7156 55.9198 76.0158 55.9198Z" fill="#FF9C41" stroke="#2E353A" stroke-width="2" stroke-linecap="round" stroke-linejoin="round"/>
<path d="M92.1047 46.0829C93.4049 46.0829 94.4589 45.0117 94.4589 43.6904C94.4589 42.369 93.4049 41.2979 92.1047 41.2979C90.8045 41.2979 89.7505 42.369 89.7505 43.6904C89.7505 45.0117 90.8045 46.0829 92.1047 46.0829Z" fill="#FF9C41" stroke="#2E353A" stroke-linecap="round" stroke-linejoin="round"/>
<path d="M92.1047 55.9198C93.4049 55.9198 94.4589 54.8486 94.4589 53.5273C94.4589 52.2059 93.4049 51.1348 92.1047 51.1348C90.8045 51.1348 89.7505 52.2059 89.7505 53.5273C89.7505 54.8486 90.8045 55.9198 92.1047 55.9198Z" fill="white" stroke="#2E353A" stroke-linecap="round" stroke-linejoin="round"/>
<path d="M47.9277 46.9297H55.6398" stroke="#2E353A" stroke-linecap="round" stroke-linejoin="round"/>
<path d="M47.9277 48.7373H55.6398" stroke="#2E353A" stroke-linecap="round" stroke-linejoin="round"/>
<path d="M47.9277 50.5479H55.6398" stroke="#2E353A" stroke-linecap="round" stroke-linejoin="round"/>
<path d="M63.7974 46.9297H71.5095" stroke="#2E353A" stroke-linecap="round" stroke-linejoin="round"/>
<path d="M63.7974 48.7373H71.5095" stroke="#2E353A" stroke-linecap="round" stroke-linejoin="round"/>
<path d="M63.7974 50.5479H71.5095" stroke="#2E353A" stroke-linecap="round" stroke-linejoin="round"/>
<path d="M80.7051 46.9297H88.4172" stroke="#2E353A" stroke-linecap="round" stroke-linejoin="round"/>
<path d="M80.7051 48.7373H88.4172" stroke="#2E353A" stroke-linecap="round" stroke-linejoin="round"/>
<path d="M80.7051 50.5479H88.4172" stroke="#2E353A" stroke-linecap="round" stroke-linejoin="round"/>
<path d="M47.9277 57.165H55.6398" stroke="#2E353A" stroke-linecap="round" stroke-linejoin="round"/>
<path d="M47.9277 58.9756H55.6398" stroke="#2E353A" stroke-linecap="round" stroke-linejoin="round"/>
<path d="M47.9277 60.7822H55.6398" stroke="#2E353A" stroke-linecap="round" stroke-linejoin="round"/>
<path d="M63.7974 57.165H71.5095" stroke="#2E353A" stroke-linecap="round" stroke-linejoin="round"/>
<path d="M63.7974 58.9756H71.5095" stroke="#2E353A" stroke-linecap="round" stroke-linejoin="round"/>
<path d="M63.7974 60.7822H71.5095" stroke="#2E353A" stroke-linecap="round" stroke-linejoin="round"/>
<path d="M80.7051 57.165H88.4172" stroke="#2E353A" stroke-linecap="round" stroke-linejoin="round"/>
<path d="M80.7051 58.9756H88.4172" stroke="#2E353A" stroke-linecap="round" stroke-linejoin="round"/>
<path d="M80.7051 60.7822H88.4172" stroke="#2E353A" stroke-linecap="round" stroke-linejoin="round"/>
<path d="M71.3716 53.6494H72.8328" stroke="#2E353A" stroke-linecap="round" stroke-linejoin="round"/>
<path d="M76.1709 50.6821V48.8271" stroke="#2E353A" stroke-linecap="round" stroke-linejoin="round"/>
<path d="M72.936 50.8945L73.8757 51.637" stroke="#2E353A" stroke-linecap="round" stroke-linejoin="round"/>
<path d="M74.0848 55.5576L72.936 56.1951" stroke="#2E353A" stroke-linecap="round" stroke-linejoin="round"/>
<path d="M81.074 53.6494H79.6128" stroke="#2E353A" stroke-linecap="round" stroke-linejoin="round"/>
<path d="M79.5066 50.8945L78.5693 51.637" stroke="#2E353A" stroke-linecap="round" stroke-linejoin="round"/>
<path d="M75.0342 58.5654L76.2642 63.0304" stroke="#2E353A" stroke-linecap="round" stroke-linejoin="round"/>
<path d="M73.8018 58.0273L74.5053 60.3498" stroke="#2E353A" stroke-linecap="round" stroke-linejoin="round"/>
<path d="M104.117 100.55C104.117 100.55 98.2746 89.5995 97.4431 87.6796C96.6116 85.7595 95.9843 82.7345 95.7801 81.9045C95.4848 80.9306 95.4576 79.8931 95.7014 78.9045C96.0089 77.5045 95.8269 73.5095 95.9646 72.592C96.1024 71.6745 95.544 68.8046 95.2266 67.1971C94.9093 65.5896 94.191 64.4471 93.2217 64.3221C92.9398 64.2878 92.654 64.3248 92.3896 64.4299C92.1252 64.535 91.8905 64.705 91.7064 64.9246C91.7064 64.9246 91.3029 61.5021 90.9118 60.7921C90.5206 60.0821 89.2463 60.1846 88.5649 60.3546C87.8835 60.5246 87.5563 62.7396 87.5563 62.7396C87.5563 62.7396 86.9659 60.6121 86.9487 59.6621C86.9315 58.7121 85.795 57.8946 84.9094 58.1196C84.0238 58.3446 83.5465 58.7571 83.3054 60.7271C83.0644 62.6971 83.5195 65.7446 83.5195 65.7446L83.0594 65.9346C83.0594 65.9346 81.4014 60.0346 80.875 58.4771C80.3485 56.9196 79.8418 55.1371 79.4875 53.9771C79.1333 52.8171 78.6068 50.9771 77.1579 51.2596C75.709 51.5421 76.0657 54.7596 76.0657 54.7596C76.0657 54.7596 78.3313 64.6196 78.4494 65.3971C78.5675 66.1746 78.9414 68.8746 78.8676 69.7746C78.7938 70.6746 78.7963 73.0246 78.7963 73.0246L76.6388 70.4096C76.373 69.702 76.0376 69.0236 75.6376 68.3846C74.8996 67.1746 73.2588 66.0471 72.1936 66.3846C71.1284 66.7221 71.9698 67.8371 72.4101 68.4596C72.8504 69.0821 73.2071 70.8295 73.2071 71.7095C73.2071 72.5896 73.9451 73.2095 74.8357 74.8245C75.7262 76.4395 80.196 82.0196 80.8725 83.0245C81.3735 83.6999 82.0035 84.2653 82.7249 84.687C82.7249 84.687 85.3079 86.9746 86.5133 89.8296C87.7187 92.6846 91.4161 100.882 91.4161 100.882" fill="white"/>
<g style="mix-blend-mode:multiply" opacity="0.7">
<path d="M95.2709 97.9446C96.4787 96.8196 96.7789 87.7321 96.6263 84.3496C96.6263 84.3221 96.6263 84.2896 96.6263 84.2596C96.1958 83.1296 95.8613 82.2121 95.785 81.9046C95.4897 80.9307 95.4625 79.8932 95.7063 78.9046C96.0138 77.5046 95.8318 73.5096 95.9695 72.5921C96.0507 72.0496 95.8859 70.8146 95.6743 69.5646C94.7986 69.4871 93.1946 70.2896 93.1946 70.2896C93.1946 70.2896 91.9302 68.4196 91.1061 68.3546C90.282 68.2896 88.8527 69.6046 88.8527 69.6046C88.8527 69.6046 88.0335 66.7996 86.3509 67.0871C84.6683 67.3746 84.1959 67.0871 83.5317 67.1171C82.8675 67.1471 82.3288 65.5046 81.6646 63.8921C81.0004 62.2796 80.0484 56.2496 79.485 54.9996C79.485 54.9996 78.6019 52.4846 77.458 53.3221C76.3141 54.1596 77.3891 56.8971 77.9254 58.5396C78.4617 60.1821 78.7495 63.3021 79.1849 64.7896C79.6769 66.4471 79.4309 68.9096 79.8811 70.7146C80.3313 72.5196 81.4875 73.1046 80.8503 75.4646C80.2132 77.8246 78.8208 77.0721 77.2686 75.6846C75.7163 74.2971 74.9488 71.1196 74.0706 71.4346C73.7663 71.5129 73.4723 71.6279 73.1948 71.7771C73.2145 72.6421 73.9328 73.2771 74.8233 74.8571C75.7139 76.4371 80.196 82.0196 80.8725 83.0246C81.3734 83.7 82.0035 84.2654 82.7249 84.6871C82.7249 84.6871 85.3079 86.9746 86.5133 89.8296C86.7297 90.3421 87.0741 91.0996 87.4973 91.9996C87.9893 92.3996 86.9462 90.4996 87.2021 90.8146C88.9069 92.8471 94.0655 99.0721 95.2709 97.9446Z" fill="#FF9C41"/>
</g>
<path d="M104.117 100.55C104.117 100.55 98.2746 89.5995 97.4431 87.6795C96.6116 85.7595 95.9843 82.7345 95.7801 81.9045C95.4848 80.9306 95.4576 79.8931 95.7014 78.9045C96.0089 77.5045 95.8269 73.5095 95.9646 72.592C96.1024 71.6745 95.544 68.8046 95.2266 67.1971C94.9093 65.5896 94.191 64.4471 93.2217 64.3221C92.9398 64.2878 92.654 64.3248 92.3896 64.4299C92.1252 64.535 91.8905 64.705 91.7064 64.9246C91.7064 64.9246 91.3029 61.5021 90.9118 60.7921C90.5206 60.0821 89.2463 60.1846 88.5649 60.3546C87.8835 60.5246 87.5563 62.7396 87.5563 62.7396C87.5563 62.7396 86.9659 60.6121 86.9487 59.6621C86.9315 58.7121 85.795 57.8946 84.9094 58.1196C84.0238 58.3446 83.5465 58.7571 83.3054 60.7271C83.0644 62.6971 83.5195 65.7446 83.5195 65.7446L83.0594 65.9346C83.0594 65.9346 81.4014 60.0346 80.875 58.4771C80.3485 56.9196 79.8418 55.1371 79.4875 53.9771C79.1333 52.8171 78.6068 50.9771 77.1579 51.2596C75.709 51.5421 76.0657 54.7596 76.0657 54.7596C76.0657 54.7596 78.3313 64.6196 78.4494 65.3971C78.5675 66.1746 78.9414 68.8746 78.8676 69.7746C78.7938 70.6746 78.7963 73.0246 78.7963 73.0246L76.6388 70.4096C76.373 69.702 76.0376 69.0236 75.6376 68.3846C74.8996 67.1746 73.2588 66.0471 72.1936 66.3846C71.1284 66.7221 71.9698 67.8371 72.4101 68.4596C72.8504 69.0821 73.2071 70.8296 73.2071 71.7095C73.2071 72.5895 73.9451 73.2095 74.8357 74.8245C75.7262 76.4395 80.196 82.0195 80.8725 83.0245C81.3735 83.6999 82.0035 84.2653 82.7249 84.687C82.7249 84.687 85.3079 86.9746 86.5133 89.8296C87.7187 92.6845 91.4161 100.882 91.4161 100.882" stroke="#2E353A" stroke-linecap="round" stroke-linejoin="round"/>
<path d="M76.3896 51.9746C76.3896 51.9746 76.6578 53.6646 76.7094 53.8771C76.8251 54.3546 78.7685 54.1271 78.9235 53.7596C79.0612 53.4321 78.9604 52.7221 78.9604 52.7221" stroke="#2E353A" stroke-linecap="round" stroke-linejoin="round"/>
<path d="M73.0616 68.5376C73.2232 68.3708 73.3234 68.1525 73.3453 67.9194C73.3673 67.6863 73.3097 67.4527 73.1822 67.2576C72.7246 66.5652 72.4688 66.4102 72.4688 66.4102" stroke="#2E353A" stroke-linecap="round" stroke-linejoin="round"/>
<path d="M78.6382 61.7671C78.6382 61.7671 79.5066 62.0621 80.3233 60.9746" stroke="#2E353A" stroke-width="0.75" stroke-linecap="round" stroke-linejoin="round"/>
<path d="M78.7417 60.9998C78.7417 60.9998 79.9004 60.1173 80.7859 60.1898" stroke="#2E353A" stroke-width="0.75" stroke-linecap="round" stroke-linejoin="round"/>
<path d="M77.5415 56.3868C77.5415 56.3868 78.4099 55.5068 79.1061 55.6968" stroke="#2E353A" stroke-width="0.75" stroke-linecap="round" stroke-linejoin="round"/>
<path d="M78.3579 56.1799C78.7149 56.2409 79.0805 56.2238 79.4305 56.1299" stroke="#2E353A" stroke-width="0.75" stroke-linecap="round" stroke-linejoin="round"/>
<path d="M87.5537 62.748L88.0113 65.5006" stroke="#2E353A" stroke-linecap="round" stroke-linejoin="round"/>
<path d="M91.7036 64.9326L92.1931 67.8226" stroke="#2E353A" stroke-linecap="round" stroke-linejoin="round"/>
<path d="M78.7931 73.042C78.7931 73.042 78.6701 75.2045 78.8743 76.042" stroke="#2E353A" stroke-linecap="round" stroke-linejoin="round"/>
<path d="M88.0137 66.9648C88.0137 66.9648 88.518 68.3223 88.395 69.2148" stroke="#2E353A" stroke-width="0.75" stroke-linecap="round" stroke-linejoin="round"/>
<path d="M92.1392 68.3672C92.1392 68.3672 92.4811 69.0672 92.2769 70.3422" stroke="#2E353A" stroke-width="0.75" stroke-linecap="round" stroke-linejoin="round"/>
<path d="M33.6841 64.4425C33.6841 64.4425 35.7726 64.0575 36.9091 62.645C38.0457 61.2325 40.7664 59.43 41.652 59.11C42.5376 58.79 43.93 58.7225 44.4367 59.1725C44.9435 59.6225 45.1944 60.715 44.4367 62.0025C43.6791 63.29 40.5893 64.5 39.9448 65.085C39.3003 65.67 38.7443 66.0501 37.9768 67.7851C37.2297 69.4658 36.1542 70.9747 34.8157 72.2201C33.6127 73.3126 31.4012 75.1776 30.2622 75.8826" fill="white"/>
<g style="mix-blend-mode:multiply" opacity="0.7">
<path d="M39.9229 62.827C39.6597 61.6295 37.9549 62.2945 37.9549 62.2945C36.794 63.5748 35.3648 64.5736 33.7729 65.217C31.1084 66.2409 28.5336 67.4912 26.0756 68.9545C26.356 68.382 26.6611 67.8045 26.9907 67.2045C28.6906 64.1495 31.6967 60.032 33.3867 59.4995C34.4298 59.1745 35.4703 59.847 36.1198 60.417L36.1936 48.042H36.1518C35.1382 48.2345 34.3806 48.7495 34.2551 49.392C34.1296 50.0345 32.2305 54.082 31.5983 54.8545C30.9661 55.627 28.9415 58.4545 28.7521 59.482C28.6377 60.2125 28.38 60.9121 27.9944 61.5395C27.7484 61.9245 25.7164 65.072 24.2626 67.902C22.8087 70.732 22.1839 74.1195 22.2085 74.312C22.2257 74.452 19.4115 84.812 17.623 91.332C19.099 88.382 21.3942 83.6095 22.789 80.082C23.3376 80.027 24.4003 78.517 25.281 77.287C26.3265 75.827 27.8935 75.427 31.0325 73.037C34.1715 70.647 37.6966 67.3245 38.2206 65.997C38.7446 64.6695 40.1837 64.022 39.9229 62.827Z" fill="#FF9C41"/>
</g>
<path d="M33.6841 64.4425C33.6841 64.4425 35.7726 64.0575 36.9091 62.645C38.0457 61.2325 40.7664 59.43 41.652 59.11C42.5376 58.79 43.93 58.7225 44.4367 59.1725C44.9435 59.6225 45.1944 60.715 44.4367 62.0025C43.6791 63.29 40.5893 64.5 39.9448 65.085C39.3003 65.67 38.7443 66.0501 37.9768 67.7851C37.2297 69.4658 36.1542 70.9747 34.8157 72.2201C33.6127 73.3126 31.4012 75.1776 30.2622 75.8826" stroke="#2E353A" stroke-linecap="round" stroke-linejoin="round"/>
<path d="M44.4986 61.4996C44.1197 62.0771 43.1702 62.1421 43.1702 62.1421C43.1702 62.1421 42.7913 61.3071 42.5379 60.7921C42.3406 60.4455 42.0573 60.1576 41.7163 59.9571C41.7163 59.9571 42.0336 59.1221 42.6659 59.1221" stroke="#2E353A" stroke-linecap="round" stroke-linejoin="round"/>
<path d="M19.7411 77.4798C22.075 76.966 24.4656 76.7684 26.8505 76.8923C30.8874 77.0898 31.8468 79.4323 31.8468 79.4323L31.6549 84.7048C31.6549 84.7048 29.5418 83.1423 25.1211 82.5573C20.7005 81.9723 18.3955 82.3623 18.3955 82.3623L19.7411 77.4798Z" fill="white" stroke="#2E353A" stroke-linecap="round" stroke-linejoin="round"/>
<path d="M31.8861 102.082L32.9266 85.1598C26.201 81.0573 18.3954 82.3623 18.3954 82.3623L11.7534 102.082H31.8861Z" fill="#2E353A" stroke="#2E353A" stroke-linecap="round" stroke-linejoin="round"/>
<path d="M84.3774 89.0829C84.3774 89.0829 85.0343 86.4179 88.6406 84.2504C92.247 82.0829 97.6614 82.9179 97.6614 82.9179L98.4806 85.0829C98.4806 85.0829 94.0526 84.9179 90.7734 86.7504C87.4943 88.5829 85.8534 90.7504 85.8534 90.7504L84.3774 89.0829Z" fill="white" stroke="#2E353A" stroke-linecap="round" stroke-linejoin="round"/>
<path d="M108.793 102.082L99.0611 84.4021C99.0611 84.4021 95.3711 83.4171 90.9431 85.2496C86.5151 87.0821 84.7095 90.5821 84.7095 90.5821L86.5717 102.082H108.793Z" fill="#2E353A" stroke="#2E353A" stroke-linecap="round" stroke-linejoin="round"/>
<path d="M86.8227 91.1175C86.9457 91.655 86.7981 92.15 86.4882 92.2225C86.1782 92.295 85.8289 91.92 85.7059 91.3825C85.5829 90.845 85.7305 90.35 86.038 90.2775C86.3455 90.205 86.6973 90.58 86.8227 91.1175Z" fill="white"/>
</svg>
