<svg width="123" height="143" viewBox="0 0 123 143" fill="none" xmlns="http://www.w3.org/2000/svg">
<g filter="url(#filter0_d)">
<path d="M118.024 52.4844C118.024 61.0951 115.936 69.2182 112.239 76.375C108.551 83.5133 103.263 89.6902 96.8481 94.4309C88.1929 100.828 77.4875 104.609 65.8989 104.609C37.1111 104.609 13.7739 81.2722 13.7739 52.4844C13.7739 23.6965 37.1111 0.359375 65.8989 0.359375C94.6868 0.359375 118.024 23.6965 118.024 52.4844Z" fill="#FF9C41"/>
<path d="M23.2438 66.166C20.0648 69.9384 17.8975 74.198 16.7279 78.5742C15.5613 82.9392 15.3872 87.4203 16.1918 91.6501C17.2775 97.3574 20.145 102.607 24.7606 106.497C36.2262 116.158 78.2666 109.695 88.8945 97.0831C99.5224 84.4709 74.7133 70.4855 63.2477 60.8237C51.782 51.162 33.8717 53.5538 23.2438 66.166Z" fill="#FF9C41"/>
</g>
<defs>
<filter id="filter0_d" x="0" y="0.359375" width="122.024" height="141.831" filterUnits="userSpaceOnUse" color-interpolation-filters="sRGB">
<feFlood flood-opacity="0" result="BackgroundImageFix"/>
<feColorMatrix in="SourceAlpha" type="matrix" values="0 0 0 0 0 0 0 0 0 0 0 0 0 0 0 0 0 0 127 0"/>
<feOffset dy="4"/>
<feGaussianBlur stdDeviation="2"/>
<feColorMatrix type="matrix" values="0 0 0 0 0 0 0 0 0 0 0 0 0 0 0 0 0 0 0.25 0"/>
<feBlend mode="normal" in2="BackgroundImageFix" result="effect1_dropShadow"/>
<feBlend mode="normal" in="SourceGraphic" in2="effect1_dropShadow" result="shape"/>
</filter>
</defs>
</svg>
