<svg id="Capa_1" data-name="Capa 1" xmlns="http://www.w3.org/2000/svg" viewBox="0 0 64 64"><defs><style>.cls-1{fill:#fff;}</style></defs><title>conecty-icono-tel-blanco</title><path class="cls-1" d="M32,0A32,32,0,1,0,64,32,32,32,0,0,0,32,0ZM52.56,46.63c-.88,2.43-5.12,4.81-7.08,5s-3.74.84-12.63-2.66C22.21,44.78,15.48,33.83,14.93,33.13s-4.27-5.69-4.27-10.85a11.76,11.76,0,0,1,3.68-8.75,3.86,3.86,0,0,1,2.8-1.31h2c.75,0,1.58.07,2.36,1.82v0c.93,2.07,3,7.27,3.23,7.79a1.94,1.94,0,0,1,.09,1.83,7.2,7.2,0,0,1-1,1.75c-.52.61-1.1,1.36-1.58,1.83a1.55,1.55,0,0,0-.44,2.15,31.62,31.62,0,0,0,5.84,7.27A28.7,28.7,0,0,0,36,41.91c1,.52,1.66.44,2.28-.26s2.62-3.06,3.32-4.11S43,36.68,44,37s6.13,2.89,7.17,3.41,1.75.78,2,1.23S53.44,44.2,52.56,46.63Z"/></svg>