<svg id="Capa_1" data-name="Capa 1" xmlns="http://www.w3.org/2000/svg" viewBox="0 0 64 64"><defs><style>.cls-1{fill:#fff;}</style></defs><title>conecty-icono-verificado-blanco</title><path class="cls-1" d="M59,32l5-5.07-6.32-3.27,3.19-6.37-7-1.16,1.07-7-7,1.07-1.16-7L40.34,6.32,37.07,0,32,5,26.93,0,23.66,6.32,17.29,3.13l-1.16,7-7-1.07,1.07,7-7,1.16,3.19,6.37L0,26.93,5,32,0,37.07l6.32,3.27L3.13,46.71l7,1.16-1.07,7,7-1.07,1.16,7,6.37-3.19L26.93,64,32,59l5.07,5,3.27-6.32,6.37,3.19,1.16-7,7,1.07-1.07-7,7-1.16-3.19-6.37L64,37.07ZM25.19,48.57,10.67,34l5-5,9.53,9.53L48.34,15.43l5,5Z"/></svg>